<svg id="logo_S" data-name="logo S" xmlns="http://www.w3.org/2000/svg" width="586" height="135" viewBox="0 0 586 135">
  <metadata><?xpacket begin="﻿" id="W5M0MpCehiHzreSzNTczkc9d"?>
<x:xmpmeta xmlns:x="adobe:ns:meta/" x:xmptk="Adobe XMP Core 5.6-c142 79.160924, 2017/07/13-01:06:39        ">
   <rdf:RDF xmlns:rdf="http://www.w3.org/1999/02/22-rdf-syntax-ns#">
      <rdf:Description rdf:about=""/>
   </rdf:RDF>
</x:xmpmeta>
                                                                                                    
                                                                                                    
                                                                                                    
                                                                                                    
                                                                                                    
                                                                                                    
                                                                                                    
                                                                                                    
                                                                                                    
                                                                                                    
                                                                                                    
                                                                                                    
                                                                                                    
                                                                                                    
                                                                                                    
                                                                                                    
                                                                                                    
                                                                                                    
                                                                                                    
                                                                                                    
                           
<?xpacket end="w"?></metadata>
<defs>
    <style>
      .cls-1 {
        fill: #8c8b12;
      }

      .cls-1, .cls-2, .cls-3, .cls-4 {
        fill-rule: evenodd;
      }

      .cls-2 {
        fill: #12748c;
      }

      .cls-3 {
        fill: #128c12;
      }

      .cls-4 {
        fill: #e91a41;
      }

      .cls-5 {
        font-size: 100px;
        fill: #219ebc;
        font-family: "Times New Roman";
        font-weight: 700;
      }
    </style>
  </defs>
  <g id="graphic">
    <g id="item">
      <path class="cls-1" d="M242.589,498.828a32.243,32.243,0,0,1,0,64.485" transform="translate(-207 -433)"/>
      <path id="Ellipse_4_copy" data-name="Ellipse 4 copy" class="cls-2" d="M241.25,433a32.243,32.243,0,0,0,0,64.485" transform="translate(-207 -433)"/>
      <path class="cls-3" d="M223.915,528.258A16.9,16.9,0,1,1,207,545.156,16.906,16.906,0,0,1,223.915,528.258Z" transform="translate(-207 -433)"/>
      <path class="cls-4" d="M274.746,466.586c-16.28,0-28.7-15.913-32.157-32.243-0.335-1.58,15.877-1.343,32.157-1.343" transform="translate(-207 -433)"/>
    </g>
    <g id="item_copy" data-name="item copy">
      <path class="cls-1" d="M443.386,531.351a16.826,16.826,0,0,1,0,33.649" transform="translate(-207 -433)"/>
      <path id="Ellipse_4_copy-2" data-name="Ellipse 4 copy" class="cls-2" d="M442.694,497a16.826,16.826,0,0,0,0,33.65" transform="translate(-207 -433)"/>
      <path class="cls-3" d="M433.742,546.7A8.822,8.822,0,1,1,425,555.526,8.782,8.782,0,0,1,433.742,546.7Z" transform="translate(-207 -433)"/>
      <path class="cls-4" d="M460,514.526c-8.41,0-14.824-8.3-16.612-16.825-0.173-.825,8.2-0.7,16.612-0.7" transform="translate(-207 -433)"/>
    </g>
  </g>
  <g id="text">
    <text id="an" class="cls-5" transform="translate(67.746 128.657) scale(1.34 1.343)">an</text>
    <text id="OFTIC" class="cls-5" x="255" y="134">OFTIC</text>
  </g>
</svg>
