<svg width="0" height="0" class="hidden">
    <symbol fill="none" xmlns="http://www.w3.org/2000/svg" viewBox="0 0 12 13" id="user">
    <path
      d="M9.54 6.69A4.27 4.27 0 016 9a4.27 4.27 0 01-3.54-2.31c-1.18.86-2 2.11-2.32 3.54a.5.5 0 00.2.51 9.99 9.99 0 0011.32 0 .5.5 0 00.2-.51 5.98 5.98 0 00-2.32-3.54z"
      fill="currentColor"/>
    <path d="M6 .5a3 3 0 00-3 3c0 1.61 1.26 4 3 4s3-2.39 3-4a3 3 0 00-3-3z" fill="currentColor"/>
  </symbol>


  <symbol xmlns="http://www.w3.org/2000/svg" fill="currentColor" viewBox="0 0 513.64 513.64" id="phone" width="35" height="35" style="shape-rendering:geometricPrecision;text-rendering:geometricPrecision;image-rendering:optimizeQuality;fill-rule:evenodd;clip-rule:evenodd">
    <path style="opacity:.908" d="M69.5-.5h116c9.316 3.15054 15.483 9.48387 18.5 19 .667 72.6667.667 145.333 0 218-3.017 9.516-9.184 15.849-18.5 19h-116c-9.3159-3.151-15.4826-9.484-18.5-19a11880.656 11880.656 0 0 1 0-218c3.0174-9.51613 9.1841-15.84946 18.5-19Zm3 11c36.668-.1667 73.335 0 110 .5 4.343 1.0095 7.51 3.5095 9.5 7.5 1.384 6.9112 1.884 13.9112 1.5 21h-132c-.3844-7.0888.1156-14.0888 1.5-21 2.1608-4.0048 5.3275-6.6714 9.5-8Zm-11 41h132v152h-132v-152Zm0 164h132c.166 6.009-.001 12.009-.5 18-1.187 4.209-3.687 7.376-7.5 9.5-19.271 1.149-38.604 1.649-58 1.5-19.396.149-38.7291-.351-58-1.5-3.813-2.124-6.313-5.291-7.5-9.5-.4995-5.991-.6662-11.991-.5-18Z"/>
    <path style="opacity:.886" d="M114.5 19.5c8.673-.1664 17.34.0002 26 .5 4 3.3333 4 6.6667 0 10-8.667.6667-17.333.6667-26 0-3.935-3.496-3.935-6.996 0-10.5Z"/>
    <path style="opacity:.788" d="M124.5 224.5c4.593-1.082 7.593.585 9 5-1.674 6.193-5.174 7.527-10.5 4-1.99-3.374-1.49-6.374 1.5-9Z"/>
  </symbol>

  
  <symbol xmlns="http://www.w3.org/2000/svg" fill="currentColor" viewBox="0 0 513.64 513.64" id="lock" width="35" height="35" style="shape-rendering:geometricPrecision;text-rendering:geometricPrecision;image-rendering:optimizeQuality;fill-rule:evenodd;clip-rule:evenodd">
    <path style="opacity:.937" d="M119.5 6.5c37.976-1.27788 62.809 16.0555 74.5 52 1.399 15.2896 1.899 30.623 1.5 46 12.227.726 19.727 7.059 22.5 19 .667 35.333.667 70.667 0 106-2.055 9.722-7.888 15.889-17.5 18.5-48.667.667-97.333.667-146 0-9.6117-2.611-15.4451-8.778-17.5-18.5-.6667-35.333-.6667-70.667 0-106 2.7733-11.941 10.2733-18.274 22.5-19a800.38801 800.38801 0 0 1 .5-40c6.9093-32.7443 26.7426-52.0776 59.5-58Zm2 16c25.64-1.1059 43.807 9.8941 54.5 33 1.408 3.5569 2.408 7.2235 3 11 .5 12.6623.667 25.3289.5 38h-104a722.3676 722.3676 0 0 1 .5-38c5.5816-24.7507 20.7483-39.4174 45.5-44Zm-64 98c47.418-.49 94.751.01 142 1.5 1.201.903 2.035 2.069 2.5 3.5.986 34.752.653 69.418-1 104-.903 1.201-2.069 2.035-3.5 2.5-47.417.99-94.75.657-142-1-1.2014-.903-2.0348-2.069-2.5-3.5-.6667-34-.6667-68 0-102 1.025-2.187 2.525-3.854 4.5-5Zm67 38c5.593-1.049 8.926 1.117 10 6.5-.432 4.266-2.765 6.766-7 7.5-5.441-1.217-7.608-4.551-6.5-10 .69-1.85 1.856-3.184 3.5-4Z"/>
    <path style="opacity:.927" d="M120.5 142.5c24.5-1.004 33.667 10.33 27.5 34-2.748 4.581-6.581 7.915-11.5 10-.831 6.642-1.331 13.309-1.5 20-4.01 4.503-8.676 5.17-14 2-1.099-7.253-1.932-14.586-2.5-22-13.243-7.557-17.076-18.557-11.5-33 3.336-5.231 7.836-8.898 13.5-11Zm4 16c-1.644.816-2.81 2.15-3.5 4-1.108 5.449 1.059 8.783 6.5 10 4.235-.734 6.568-3.234 7-7.5-1.074-5.383-4.407-7.549-10-6.5Z"/>
  </symbol>

  <symbol xmlns="http://www.w3.org/2000/svg" fill="currentColor" viewBox="0 0 513.64 513.64" id="user-form" width="35" height="35" style="shape-rendering:geometricPrecision;text-rendering:geometricPrecision;image-rendering:optimizeQuality;fill-rule:evenodd;clip-rule:evenodd">
    <path style="opacity:.928" d="M114.5-.5h23c35.926 10.4562 52.426 34.4562 49.5 72-5.236 24.5732-19.736 41.073-43.5 49.5-37.452 7.528-63.2849-6.305-77.5-41.5-7.5044-41.3638 8.6623-68.0304 48.5-80Zm2 16c28.337-2.4285 46.504 9.9048 54.5 37 2.624 27.0264-8.876 44.8597-34.5 53.5-27.756 4.043-46.256-7.1237-55.5-33.5-3.8538-28.9882 7.9795-47.9882 35.5-57Z"/>
    <path style="opacity:.942" d="M199.5 255.5h-145c-24.0482-6.75-35.3815-22.75-34-48-.4066-18.324 2.76-35.991 9.5-53 10.2034-22.894 27.7034-33.061 52.5-30.5 13.1629 10.58 28.163 16.746 45 18.5 15.409-1.3 29.076-6.8 41-16.5 16.034-5.245 30.367-2.079 43 9.5 9.302 9.935 15.469 21.602 18.5 35 3.808 15.795 5.141 31.795 4 48-3.45 19.947-14.95 32.281-34.5 37Zm-127-117c9.1685 4.965 18.5018 9.798 28 14.5 22.884 8.125 44.884 6.125 66-6 4.244-3.244 8.744-6.078 13.5-8.5 12.865 1.208 22.198 7.542 28 19 8.167 19.163 11.5 39.163 10 60-3.718 15.372-13.552 22.872-29.5 22.5-41 .667-82 .667-123 0-14.6372-.003-24.1372-6.836-28.5-20.5-2.6779-23.264 1.3221-45.264 12-66 5.868-8.178 13.7013-13.178 23.5-15Z"/>
  </symbol>

  <symbol xmlns="http://www.w3.org/2000/svg" id="search" fill="currentColor" viewBox="0 0 288.136 288.136" style="enable-background:new 0 0 288.136 288.136" xml:space="preserve">
    <path d="M253.094 35.437C230.46 12.803 200.367.338 168.359.338s-62.102 12.465-84.735 35.099c-38.632 38.632-45.319 97.294-20.067 142.865L9.496 232.364c-12.661 12.661-12.661 33.262 0 45.923 6.133 6.134 14.287 9.511 22.961 9.511s16.828-3.377 22.961-9.511l53.821-53.821c17.824 10.141 38.057 15.539 59.12 15.539 32.009 0 62.102-12.464 84.735-35.098 46.723-46.724 46.723-122.747 0-169.47zm-21.212 148.257c-16.968 16.967-39.527 26.311-63.522 26.311s-46.555-9.344-63.522-26.311c-35.025-35.026-35.025-92.019 0-127.044 16.968-16.968 39.527-26.312 63.522-26.312s46.555 9.344 63.522 26.312c35.025 35.026 35.025 92.018 0 127.044z"/>
  </symbol>

  <symbol xmlns="http://www.w3.org/2000/svg" id="menu" fill="currentColor" viewBox="0 0 330 330" style="enable-background:new 0 0 330 330" xml:space="preserve"><path d="M135 90H15c-8.284 0-15 6.716-15 15s6.716 15 15 15h120c8.284 0 15-6.716 15-15s-6.716-15-15-15zM135 150H15c-8.284 0-15 6.716-15 15 0 8.284 6.716 15 15 15h120c8.284 0 15-6.716 15-15 0-8.284-6.716-15-15-15zM135 210H15c-8.284 0-15 6.716-15 15 0 8.284 6.716 15 15 15h120c8.284 0 15-6.716 15-15 0-8.284-6.716-15-15-15zM328.858 129.26A15 15 0 0 0 315 120H195a15 15 0 0 0-10.606 25.607l60 60C247.322 208.536 251.161 210 255 210s7.678-1.464 10.606-4.394l60-60a14.996 14.996 0 0 0 3.252-16.346zM255 173.787 231.213 150h47.574L255 173.787z"/>
  </symbol>

  <symbol xmlns="http://www.w3.org/2000/svg" id="notif" fill="currentColor" viewBox="0 0 330 330" width="92" height="92" xml:space="preserve">
    <path d="M46 33h-.5c-1.9 0-3.5-1.6-3.5-3.5V18c0-9.1-7.6-16.4-16.8-16C16.6 2.4 10 9.8 10 18.5v11.1c0 1.9-1.6 3.4-3.5 3.4H6c-2.2 0-4 1.9-4 4.1v1.5c0 .7.7 1.4 1.5 1.4h45c.8 0 1.5-.7 1.5-1.5V37c0-2.2-1.8-4-4-4zM30.9 44h-9.8c-.6 0-1.1.6-1 1.2.5 2.8 3 4.8 5.9 4.8s5.4-2.1 5.9-4.8c.1-.6-.4-1.2-1-1.2z"/>
  </symbol>


<symbol version="1.0" xmlns="http://www.w3.org/2000/svg" id="cart" fill="currentColor" viewBox="0 0 512 512">
  <path d="M72 63.5c-10.3 3.2-20.7 13.2-24.6 23.8-1.9 5.1-1.9 9.3-1.9 169.2v164l2.7 5.7c5.3 11.4 12.5 18 23.6 21.7L78 450l180.8-.2 180.7-.3 5.7-2.7c12-5.6 20.7-17 22.8-29.9 1.4-8.8 1.4-312.9 0-321.9-2.4-14.9-12.2-26.5-26.4-31.3-4.6-1.6-19.6-1.7-185-1.6-151.2 0-180.8.3-184.6 1.4zm366.7 14c5.9 2.5 9.6 5.9 12.8 11.6l3 5.4v47l-197.8.3-197.8.2.3-24.2c.3-22.9.4-24.5 2.5-28.5 2.6-4.8 8.6-10.2 13.4-11.9 2.6-1 44.3-1.3 181.7-1.3 157.9-.1 178.7.1 181.9 1.4zm16.1 208.7c-.3 129.7-.3 130.3-2.4 134.8-2.3 5.1-7.1 10.2-11.8 12.8-2.9 1.6-15 1.7-182.6 2l-179.6.2-5.4-2.7c-6.1-3.1-11.3-9.2-13-15.1-.6-2.5-1-47-1-133V156h396l-.2 130.2z"/><path d="M102.8 102.4c-2.8 2.1-3.8 5.8-2.3 9.2 3.1 7.5 13.5 5.1 13.5-3 0-5.8-6.8-9.6-11.2-6.2zM145.6 103.1c-5.1 4-2.3 12.9 4.2 12.9 5.7 0 9.6-5.6 7.1-10.3-2.7-5-7-6-11.3-2.6zM188.6 103.1c-3.4 2.7-3.6 7.7-.3 10.7 4.9 4.6 12.1 1.4 12.1-5.3 0-6.7-6.4-9.6-11.8-5.4zM90 187.2c-2 2.1-2 3.1-2 67.4 0 64.4 0 65.2 2.1 67.8l2 2.6h132.8l2-2.6c2.1-2.6 2.1-3.4 2.1-67.4s0-64.8-2.1-67.4l-2-2.6H92.1l-2.1 2.2zm125 67.9v56l-2.6-.3c-2.3-.3-2.9-1-4.1-5.7-1.7-6.9-6.6-16-11.5-21.6-16.1-18.3-45.6-22.2-66.4-8.7-11.7 7.6-18.7 17.7-22.4 31.9-.9 3.6-1.5 4.3-3.5 4.3H102V199h113v56.1zm-48.6 26.4c9.9 1.6 20.7 10 25.6 19.8 5.3 10.6 8.4 9.7-33.9 9.7h-37l.9-3c1.8-6.2 5.6-12.2 10.7-17.1 6-5.7 11.6-8.5 19.4-9.8 5.4-.9 6.7-.8 14.3.4z"/><path d="M148.9 205.3c-13 4.9-20.4 15.4-20.3 28.7.1 11.5 6.8 22.1 17.3 27.2 6.9 3.4 18.7 3.2 25.7-.4 10.5-5.5 16.6-15.4 16.6-26.9 0-11.5-6.3-21.8-16.5-27.1-5.3-2.7-17.5-3.5-22.8-1.5zm16.8 14.4c1.9.9 4.6 3.3 6 5.4 2.2 3.3 2.5 4.7 2.1 9.7-.5 6.9-2.7 10.4-8.4 13.2-5.1 2.5-9.4 2.5-14.3 0-9.3-4.7-11.5-17.3-4.3-25.4 4.1-4.5 12.7-5.9 18.9-2.9zM253 187c-2.9 2.9-2.6 7.4.6 9.9 2.7 2.1 3.2 2.1 84.1 2.1 91.3 0 87.2.4 87.3-7.6 0-6.8 5.4-6.4-86.8-6.4-81.9 0-83.2 0-85.2 2zM253 230c-2.9 2.9-2.6 7.4.6 9.9 2.6 2 3.7 2.1 44.4 2.1 40.7 0 41.8-.1 44.4-2.1 3.2-2.5 3.5-7 .6-9.9-1.9-1.9-3.3-2-45-2s-43.1.1-45 2zM92.3 350c-4.4 1.8-5.6 7.3-2.3 10.8l2.1 2.2h315.8l2.1-2.7c1.5-1.9 1.9-3.5 1.5-5.3-1.5-5.9 10.7-5.5-160.3-5.7-89.1-.1-157.6.2-158.9.7zM93.3 392.7c-4.9.9-6.9 7.7-3.3 11.3 2 2 3.1 2 160.1 1.8l158.2-.3 2-2.7c1.7-2.3 1.8-3.1.8-5.7-.8-1.8-2.4-3.4-4.3-4-3-1.1-308.2-1.4-313.5-.4z"/>
</symbol>

<symbol version="1.0" xmlns="http://www.w3.org/2000/svg" id="pencil" fill="currentColor" viewBox="0 0 512 512">
<path d="M243.2 29.2c-.7.7-1.2 1.9-1.2 2.8 0 3.3 2.2 4 12.1 4 11 0 13.1-1.1 11.1-5.5-1.1-2.4-1.5-2.5-11-2.5-6.3 0-10.2.4-11 1.2zM275.2 30.2c-1.6 1.6-1.5 4.3.1 5.6.7.6 5.3 1.7 10.1 2.5 8.4 1.3 9 1.3 10.8-.5 2.9-2.9.9-5.5-5.4-6.7-10.5-2-14.3-2.2-15.6-.9zM218.2 31.4c-7.8 1.6-10.4 4.6-6.6 7.6 1.2 1.1 3 1.1 9.7.1 10.9-1.7 11.5-1.9 12.2-4.2 1.6-4.8-3.2-5.9-15.3-3.5zM306.6 36.6c-3.7 3.6-1.8 5.4 9.2 8.9 9.1 2.9 12.2 2.6 12.2-.9 0-3.1-1.1-3.9-10.5-7s-8.9-3-10.9-1zM190.9 38.5c-9.9 3.4-11.1 4.2-10.7 7.3.4 3.7 3.2 3.9 12.5.7 10.7-3.7 12.3-5.4 8.7-8.9-1.9-2-2.5-2-10.5.9zM336.6 47.5c-3.4 3.5-2.5 4.5 9.8 10.9 7.5 3.9 10.6 3.7 10.6-.9 0-1.9-1.4-3.1-7.2-6.3-9.5-5.2-11.2-5.6-13.2-3.7zM159.5 52.3c-6.5 3.5-8 4.7-8 6.6 0 4.8 2.8 4.9 12 .3 8.7-4.3 10.6-6.2 8.8-9.1-1.7-2.7-4.5-2.3-12.8 2.2zM364.2 63.2c-2.5 2.5-1.1 4.8 6.4 10.3 7.7 5.8 10.7 6.5 12.8 3.3 1.3-2.1-.7-4.5-9-10.4-6.5-4.6-8.2-5.2-10.2-3.2zM133.1 69.2c-7.8 5.8-9.7 9.2-6.5 11.5 2.3 1.7 2.1 1.8 10.9-4.7 6-4.4 7.5-6 7.5-8.1 0-2.4-1.5-3.9-4-3.9-.5 0-4 2.4-7.9 5.2zM389.2 83.2c-2.3 2.3-1.2 4.4 5.6 11.1 6.8 6.7 8.8 7.7 11 5.5 2.3-2.3 1.2-4.4-5.6-11.1-6.8-6.7-8.8-7.7-11-5.5zM108.8 91.1c-3.7 3.9-6.8 7.9-6.8 8.8 0 2.2 1.9 4.1 4.1 4.1 1.8 0 14.9-13.5 14.9-15.4 0-1.7-1.3-3.2-3.5-4-1.5-.5-3.3.8-8.7 6.5zM410 108c-1.2 2.3-1.3 2.2 4.8 10.5 5.5 7.6 6.9 8.7 9.3 7.4 3.1-1.6 2.2-5.2-3.3-12.7-5.5-7.7-8.7-9.2-10.8-5.2zM93.6 109.4c-2.5 2-10.6 14.7-10.6 16.6 0 2.2 3.2 4.3 5.2 3.5.7-.3 3.7-4.2 6.6-8.5 3.7-5.5 5.2-8.5 4.7-9.9-.7-2.3-3.9-3.3-5.9-1.7zM428.8 133.1c-1 .5-1.8 1.9-1.8 3 0 2.8 7.6 17.5 9.4 18.2 2.2.9 4.4-.2 5.1-2.3.9-2.8-8.1-20.1-10.4-20-.3 0-1.4.5-2.3 1.1zM356.7 135c-9.1 1.6-15.2 5.5-28.8 18.7-7.1 6.9-12.9 12.8-12.9 13.2 0 .4 14.6 15.5 32.5 33.6l32.5 33 13-13.1c10.6-10.7 13.6-14.5 16.3-20 2.9-6.3 3.2-7.8 3.2-16.4 0-8.6-.3-10.1-3.1-16-3.5-7.4-13.9-19.2-22.7-25.6-8.8-6.5-19.7-9.2-30-7.4zM72.1 144.9c-3.6 7.6-4.1 9.3-3.1 11.1.7 1.4 1.9 2 3.3 1.8 1.7-.2 3.3-2.5 6.5-9.1 4.7-9.9 4.8-12.7.3-12.7-2.5 0-3.2.9-7 8.9zM440.7 162.7c-1.2 1.2-.8 4.3 1.8 12.9 2.8 9 5.1 11.2 8.3 8 1.5-1.5 1.5-2.1 0-8-2.8-10.6-4.4-13.6-7.1-13.6-1.3 0-2.7.3-3 .7zM64.3 165.8c-.6.4-2.3 4.7-3.7 9.6-2.9 10-2.4 13 2.2 12.4 2.4-.3 2.8-1.1 5.3-9.8 1.9-6.6 2.4-10 1.8-11.2-1-1.9-3.5-2.3-5.6-1zM290 191.5 271.5 210l32.5 32.5c17.9 17.9 32.9 32.5 33.5 32.5.6 0 9.1-8.1 19-18l18-18-33-33-33-33-18.5 18.5zM449.5 193.4c-1.7 1.2-1.8 2-.7 11.1.7 5.4 1.5 10.2 1.8 10.6 1 1.6 5.3.9 6.3-.9.9-1.7.2-11.2-1.4-17.9-.7-3.1-3.7-4.6-6-2.9zM56.2 197.2c-1.1 1.5-3.3 18.5-2.5 20.4.8 2.1 4.4 2.8 5.9 1.2 2.1-2.1 4-19.4 2.4-21.3-1.5-1.8-4.4-1.9-5.8-.3zM198.8 282.7C137.2 344.5 132 350 129.3 356c-4.1 8.9-18.8 66.9-17.9 70.6.4 1.5 2.2 4.2 4.1 6.1 2.7 2.7 4.1 3.3 7.6 3.3 6.5 0 62.1-14.6 69.3-18.2 5.3-2.6 14.9-11.8 72.9-69.6l66.7-66.7-32.7-32.7c-18.1-18.1-33-32.8-33.3-32.8-.3 0-30.5 30-67.2 66.7zm-46.1 68.4c.6.6 5 1.4 9.9 1.7 8.9.7 8.9.7 9.5 3.7.4 1.6.7 5.5.8 8.6.2 8.2 1 8.9 11.8 9.6l9.2.6.6 7.6c.8 11.4 1.4 12.5 5.8 12.9 2 .2 3.7.7 3.7 1.1 0 1.8-13.2 13.2-17.2 14.9-2.3 1-9.4 3.1-15.6 4.7l-11.4 2.8-15.4-15.4c-9.7-9.7-15.4-16.1-15.4-17.4 0-3.2 5.7-24.1 7.6-27.7.9-1.8 4.4-6.1 7.8-9.6l6.1-6.4.6 3.7c.3 2 1.1 4.1 1.6 4.6zM452.2 225.2c-.6.7-1.2 5.7-1.4 11.2-.3 8.5-.1 10 1.5 11 3.5 2.2 5.1-.4 6-9.8.7-7.3.6-9.1-.7-11.1-1.8-2.7-3.8-3.2-5.4-1.3zM54.2 229.2c-.7.7-1.2 4.5-1.2 9.9 0 7.1.4 9.1 1.9 11 1.6 2 2.3 2.2 3.8 1.3 1.5-.9 1.8-2.7 2.1-10.9.3-10-.5-12.5-3.7-12.5-.9 0-2.2.5-2.9 1.2zM449.6 258.2c-.8 1.3-2 6-2.7 10.5-1 6.6-1 8.5.1 9.7 3.4 4.2 6.3.3 8.1-10.7.9-5.6 1-8.3.2-9.5-1.6-2.6-4-2.6-5.7 0zM56.2 261.7c-.9 1.7 1.8 17.9 3.3 20.3 1 1.7 5.4 1.1 6.4-.8.8-1.5-1.4-14.8-3.3-19.7-.8-2.1-5.3-1.9-6.4.2zM442.9 288.3c-.8.8-2.7 5.3-4.3 10-2.5 7.2-2.8 8.8-1.7 10.1 1.5 1.8 4.2 2.1 5.8.5.6-.6 2.3-4.8 3.9-9.5 2.2-6.5 2.6-8.8 1.8-10.2-1.5-2.2-3.8-2.6-5.5-.9zM64.1 292.4c-1.4 1.7-1.1 3.1 3.1 13.3 2.7 6.6 3.2 7.3 5.8 7.3 4.3 0 4.4-2.6.7-12.6-2.9-7.6-3.8-8.9-5.9-9.2-1.4-.2-3 .4-3.7 1.2zM430.3 318.2c-.5.7-2.9 4.8-5.3 9.1l-4.2 7.9 2 2.1c1.9 1.9 2.2 1.9 4.4.5 1.3-.9 4.1-5 6.3-9.2 3.2-6.1 3.8-7.9 2.9-9.3-1.4-2.2-4.7-2.8-6.1-1.1zM77.2 321.2c-2 2-1.4 3.9 3.3 11.9 4.4 7.7 6.2 9.3 9 8.3 3.2-1.3 2.6-4.3-2.3-12.6s-7.4-10.2-10-7.6zM413.1 346.2c-8.5 10-10.1 12.5-9.9 14.8.2 1.9 1 2.6 3 2.8 2.2.3 3.5-.8 8.2-6.7 5.7-7.1 7-11.3 4-12.5-2.5-1-3.3-.7-5.3 1.6zM94.2 348.2c-2.1 2.1-1.3 4.2 4.8 11.5 5.9 7.2 8.4 8.5 10.8 6.1 2.1-2.1 1.3-4.2-4.9-11.6-5.9-7.1-8.3-8.4-10.7-6zM387.2 374.6c-4 3.6-7.2 7.3-7.2 8.3 0 2.1 1.9 4.1 4 4.1 1.9 0 16-13 16-14.7 0-1.5-2.8-4.3-4.4-4.3-.6 0-4.4 3-8.4 6.6zM362.3 393.8c-4.3 2.7-7.5 5.6-7.9 6.9-1.6 6 4 5.7 13.1-.6 5.9-4.1 7-5.3 7-7.7 0-4.6-3.7-4.2-12.2 1.4zM334.4 409c-8.9 4.2-10.6 6.3-7.6 9.3 1.9 1.8 2.1 1.8 9.3-1.2 11.8-4.9 13.9-7 10.3-10.5-2.1-2.1-2.6-2-12 2.4zM304.6 419.4c-8.5 2.4-10.9 4.3-9 7.3 1.6 2.6 4 2.6 12.8.1 8.4-2.5 10.9-4.5 9-7.6-1.5-2.4-3.7-2.3-12.8.2zM206.6 421.3c-4.7 3.4 1.1 7.9 10.3 8.1 5.4.1 5.6 0 5.9-2.6.4-3.1-1.2-4.2-7.3-5.2-2.2-.4-4.7-.9-5.6-1.2-.8-.2-2.3.2-3.3.9zM272.3 424.9c-7.2.7-10.5 3-8.7 5.9 1 1.4 2.6 1.7 10.8 1.5 9.9-.2 12.6-1.1 12.6-4.2 0-4-1.9-4.4-14.7-3.2zM232.2 426.3c-1.8 2.1-.6 5.6 2.1 6.1 5.8 1.2 17 1.5 18.7.6 2.3-1.2 2.6-4.2.6-5.9-.7-.6-5.6-1.4-10.7-1.8-7.9-.5-9.6-.3-10.7 1zM101.5 444.9c-8.1 3.6-13.5 13.1-12 21 1.1 5.8 4.3 10.9 8.7 13.8l4.2 2.8 152.3.3c149.7.2 152.4.2 156.2-1.7 14.6-7.5 14.7-28.1.2-35.8l-4.4-2.3H256.1c-143.5 0-150.8.1-154.6 1.9z"/>
</symbol>

<symbol xmlns="http://www.w3.org/2000/svg" id="search1" fill="currentColor" viewBox="0 0 512 512" style="enable-background:new 0 0 590.556 590.556" xml:space="preserve">
  <path d="M574.099 469.235 437.61 353.434c-3.248-2.709-7.227-4.171-11.266-4.171-5.643 0-11.018 2.843-14.373 7.606a234.584 234.584 0 0 1-56.611 56.635c-4.1 2.895-6.816 7.319-7.449 12.143-.635 4.828.775 9.602 3.975 13.439l115.873 136.61c7.852 9.422 19.252 14.859 31.23 14.859 10.768 0 21.021-4.324 28.877-12.179l48.98-48.981c8.346-8.348 12.656-19.241 12.137-30.68-.523-11.446-5.808-21.915-14.884-29.48zM218.399 433.743c57.923 0 112.385-22.559 153.348-63.522 40.965-40.965 63.523-95.423 63.523-153.349C435.271 97.29 337.983 0 218.399 0 98.814 0 1.53 97.29 1.53 216.872s97.287 216.871 216.869 216.871zM71.81 216.872c0-80.83 65.759-146.589 146.589-146.589 80.831 0 146.588 65.759 146.588 146.589 0 39.091-15.262 75.885-42.982 103.602-27.721 27.718-64.515 42.984-103.606 42.984-80.83.003-146.589-65.757-146.589-146.586z"/>
</symbol>

<symbol xmlns="http://www.w3.org/2000/svg" id="edit" fill="currentColor" viewBox="0 0 477.873 477.873" style="enable-background:new 0 0 477.873 477.873" xml:space="preserve">
  <path d="M392.533 238.937c-9.426 0-17.067 7.641-17.067 17.067V426.67c0 9.426-7.641 17.067-17.067 17.067H51.2c-9.426 0-17.067-7.641-17.067-17.067V85.337c0-9.426 7.641-17.067 17.067-17.067H256c9.426 0 17.067-7.641 17.067-17.067S265.426 34.137 256 34.137H51.2C22.923 34.137 0 57.06 0 85.337V426.67c0 28.277 22.923 51.2 51.2 51.2h307.2c28.277 0 51.2-22.923 51.2-51.2V256.003c0-9.425-7.641-17.066-17.067-17.066z"/><path d="M458.742 19.142A65.328 65.328 0 0 0 412.536.004a64.85 64.85 0 0 0-46.199 19.149L141.534 243.937a17.254 17.254 0 0 0-4.113 6.673l-34.133 102.4c-2.979 8.943 1.856 18.607 10.799 21.585 1.735.578 3.552.873 5.38.875a17.336 17.336 0 0 0 5.393-.87l102.4-34.133c2.515-.84 4.8-2.254 6.673-4.13l224.802-224.802c25.515-25.512 25.518-66.878.007-92.393z"/>
</symbol>

<symbol xmlns="http://www.w3.org/2000/svg" id="del" fill="currentColor" viewBox="0 0 477.873 477.873">
  <path d="M424 64h-88V48c0-26.51-21.49-48-48-48h-64c-26.51 0-48 21.49-48 48v16H88c-22.091 0-40 17.909-40 40v32c0 8.837 7.163 16 16 16h384c8.837 0 16-7.163 16-16v-32c0-22.091-17.909-40-40-40zM208 48c0-8.82 7.18-16 16-16h64c8.82 0 16 7.18 16 16v16h-96zM78.364 184a5 5 0 0 0-4.994 5.238l13.2 277.042c1.22 25.64 22.28 45.72 47.94 45.72h242.98c25.66 0 46.72-20.08 47.94-45.72l13.2-277.042a5 5 0 0 0-4.994-5.238zM320 224c0-8.84 7.16-16 16-16s16 7.16 16 16v208c0 8.84-7.16 16-16 16s-16-7.16-16-16zm-80 0c0-8.84 7.16-16 16-16s16 7.16 16 16v208c0 8.84-7.16 16-16 16s-16-7.16-16-16zm-80 0c0-8.84 7.16-16 16-16s16 7.16 16 16v208c0 8.84-7.16 16-16 16s-16-7.16-16-16z"/>
</symbol>


<symbol  viewBox="0 0 24 24" xmlns="http://www.w3.org/2000/svg" id="check" fill="currentColor">
  <path d="M9.707 19.121a.997.997 0 0 1-1.414 0l-5.646-5.647a1.5 1.5 0 0 1 0-2.121l.707-.707a1.5 1.5 0 0 1 2.121 0L9 14.171l9.525-9.525a1.5 1.5 0 0 1 2.121 0l.707.707a1.5 1.5 0 0 1 0 2.121z"/>
</symbol>

<symbol xmlns="http://www.w3.org/2000/svg" id="plus" fill="currentColor" viewBox="0 0 330 330" style="enable-background:new 0 0 330 330" xml:space="preserve"><path d="M315 120H210V15c0-8.284-6.716-15-15-15h-60c-8.284 0-15 6.716-15 15v105H15c-8.284 0-15 6.716-15 15v60c0 8.284 6.716 15 15 15h105v105c0 8.284 6.716 15 15 15h60c8.284 0 15-6.716 15-15V210h105c8.284 0 15-6.716 15-15v-60c0-8.284-6.716-15-15-15z"/>
</symbol>

<symbol xmlns="http://www.w3.org/2000/svg" id="moins" fill="currentColor" viewBox="0 0 330 330" style="enable-background:new 0 0 459.313 459.314" xml:space="preserve"><path d="M459.313 229.648c0 22.201-17.992 40.199-40.205 40.199H40.181c-11.094 0-21.14-4.498-28.416-11.774C4.495 250.808 0 240.76 0 229.66c-.006-22.204 17.992-40.199 40.202-40.193h378.936c22.195.005 40.17 17.989 40.175 40.181z"/>
</symbol>

<symbol xmlns="http://www.w3.org/2000/svg" id="history" fill="currentColor" viewBox="0 0 512.336 512.336" style="enable-background:new 0 0 512.336 512.336" xml:space="preserve">
  <path d="M457.671 98.001h15.83c5.522 0 10-4.478 10-10s-4.478-10-10-10h-38c-5.522 0-10 4.478-10 10v38c0 5.522 4.478 10 10 10s10-4.478 10-10v-11.003c30.342 40.621 46.835 89.908 46.835 141.17 0 130.224-105.944 236.168-236.168 236.168S20 386.392 20 256.168 125.944 20 256.168 20c9.631 0 19.324.585 28.812 1.738 5.475.662 10.468-3.237 11.134-8.72.667-5.482-3.237-10.468-8.72-11.134A259.806 259.806 0 0 0 256.168 0C187.743 0 123.413 26.646 75.03 75.03 26.646 123.413 0 187.743 0 256.168s26.646 132.755 75.03 181.138c48.383 48.384 112.713 75.03 181.138 75.03s132.755-26.646 181.138-75.03c48.384-48.383 75.03-112.713 75.03-181.138 0-57.741-19.29-113.173-54.665-158.167z"/><path d="M108.472 151.013c-4.667-2.954-10.844-1.564-13.799 3.1-22.829 36.056-32.935 79.418-28.456 122.099 4.545 43.314 24.04 84.16 54.894 115.015 37.235 37.235 86.146 55.853 135.058 55.853s97.822-18.617 135.058-55.853c74.471-74.471 74.471-195.645 0-270.115-30.807-30.806-71.586-50.294-114.828-54.874-42.602-4.515-85.917 5.512-121.958 28.229-4.673 2.945-6.072 9.12-3.128 13.792 2.945 4.673 9.12 6.072 13.792 3.128 67.938-42.82 155.105-33.007 211.979 23.867 66.673 66.673 66.673 175.157 0 241.83-66.672 66.674-175.158 66.674-241.83 0-56.088-56.088-66.048-145.361-23.682-212.271 2.953-4.667 1.566-10.845-3.1-13.8z"/><path d="M386.169 266.33h12.332c5.522 0 10-4.478 10-10s-4.478-10-10-10h-12.332c-5.522 0-10 4.478-10 10s4.477 10 10 10zM103.835 256.006c0 5.522 4.478 10 10 10h12.332c5.522 0 10-4.478 10-10s-4.478-10-10-10h-12.332c-5.522 0-10 4.477-10 10zM266.33 126.167v-12.332c0-5.522-4.478-10-10-10s-10 4.478-10 10v12.332c0 5.522 4.478 10 10 10s10-4.478 10-10zM246.006 386.169v12.332c0 5.522 4.478 10 10 10s10-4.478 10-10v-12.332c0-5.522-4.478-10-10-10s-10 4.477-10 10zM206.044 191.901c-3.906-3.904-10.236-3.904-14.143 0-3.905 3.905-3.905 10.237 0 14.143l33.891 33.891a34.234 34.234 0 0 0-4.074 16.233c0 18.996 15.454 34.45 34.45 34.45s34.45-15.454 34.45-34.45a34.246 34.246 0 0 0-4.074-16.233l68.383-68.383c3.905-3.905 3.905-10.237 0-14.143-3.906-3.904-10.236-3.904-14.143 0l-68.383 68.383c-4.84-2.597-10.367-4.074-16.233-4.074s-11.393 1.478-16.233 4.074l-33.891-33.891zm64.574 64.267c0 7.968-6.482 14.45-14.45 14.45s-14.45-6.482-14.45-14.45 6.482-14.45 14.45-14.45 14.45 6.482 14.45 14.45zM135.248 135.248c1.87-1.86 2.939-4.44 2.939-7.07s-1.069-5.2-2.939-7.07a10.064 10.064 0 0 0-7.07-2.93c-2.63 0-5.21 1.07-7.07 2.93a10.08 10.08 0 0 0-2.93 7.07c0 2.64 1.07 5.21 2.93 7.07a10.08 10.08 0 0 0 7.07 2.93c2.639 0 5.21-1.071 7.07-2.93zM325.438 29.878a10.04 10.04 0 0 0 7.08-2.93 10.06 10.06 0 0 0 2.931-7.07c0-2.63-1.07-5.21-2.931-7.07a10.082 10.082 0 0 0-7.08-2.93c-2.63 0-5.21 1.07-7.069 2.93a10.077 10.077 0 0 0-2.931 7.07c0 2.64 1.07 5.21 2.931 7.07a10.033 10.033 0 0 0 7.069 2.93z"/>
</symbol>

<symbol viewBox="0 0 64 64" xmlns="http://www.w3.org/2000/svg" id="calendar" fill="currentColor">
  <path d="M56 40.105V12c0-2.757-2.243-5-5-5h-2V5c0-1.654-1.346-3-3-3s-3 1.346-3 3v2h-5V5c0-1.654-1.346-3-3-3s-3 1.346-3 3v2h-6V5c0-1.654-1.346-3-3-3s-3 1.346-3 3v2h-5V5c0-1.654-1.346-3-3-3S9 3.346 9 5v2H7c-2.757 0-5 2.243-5 5v40c0 2.757 2.243 5 5 5h33.623c2.08 3.58 5.947 6 10.377 6 6.617 0 12-5.383 12-12 0-4.831-2.876-8.994-7-10.895zM45 5a1 1 0 0 1 2 0v6a1 1 0 0 1-2 0zM34 5a1 1 0 0 1 2 0v6a1 1 0 0 1-2 0zM22 5a1 1 0 0 1 2 0v6a1 1 0 0 1-2 0zM11 5a1 1 0 0 1 2 0v6a1 1 0 0 1-2 0zM7 9h2v2c0 1.654 1.346 3 3 3s3-1.346 3-3V9h5v2c0 1.654 1.346 3 3 3s3-1.346 3-3V9h6v2c0 1.654 1.346 3 3 3s3-1.346 3-3V9h5v2c0 1.654 1.346 3 3 3s3-1.346 3-3V9h2c1.654 0 3 1.346 3 3v5H4v-5c0-1.654 1.346-3 3-3zm0 46c-1.654 0-3-1.346-3-3V19h50v20.395A11.943 11.943 0 0 0 51 39c-.683 0-1.348.07-2 .18V34a1 1 0 0 0-1-1h-6a1 1 0 0 0-1 1v6a1 1 0 0 0 1 1h2.38C41.143 43.151 39 46.828 39 51c0 1.404.255 2.747.7 4zm40-16h-4v-4h4zm4 22c-5.514 0-10-4.486-10-10s4.486-10 10-10 10 4.486 10 10-4.486 10-10 10z"/><path d="M52 49.277V43h-2v6.277c-.595.347-1 .985-1 1.723 0 .101.015.198.03.296l-3.655 2.923 1.25 1.562 3.652-2.921c.225.088.467.14.723.14a2 2 0 0 0 2-2c0-.738-.405-1.376-1-1.723zM15 22H9a1 1 0 0 0-1 1v6a1 1 0 0 0 1 1h6a1 1 0 0 0 1-1v-6a1 1 0 0 0-1-1zm-1 6h-4v-4h4zM26 22h-6a1 1 0 0 0-1 1v6a1 1 0 0 0 1 1h6a1 1 0 0 0 1-1v-6a1 1 0 0 0-1-1zm-1 6h-4v-4h4zM37 22h-6a1 1 0 0 0-1 1v6a1 1 0 0 0 1 1h6a1 1 0 0 0 1-1v-6a1 1 0 0 0-1-1zm-1 6h-4v-4h4zM42 30h6a1 1 0 0 0 1-1v-6a1 1 0 0 0-1-1h-6a1 1 0 0 0-1 1v6a1 1 0 0 0 1 1zm1-6h4v4h-4zM15 33H9a1 1 0 0 0-1 1v6a1 1 0 0 0 1 1h6a1 1 0 0 0 1-1v-6a1 1 0 0 0-1-1zm-1 6h-4v-4h4zM26 33h-6a1 1 0 0 0-1 1v6a1 1 0 0 0 1 1h6a1 1 0 0 0 1-1v-6a1 1 0 0 0-1-1zm-1 6h-4v-4h4zM37 33h-6a1 1 0 0 0-1 1v6a1 1 0 0 0 1 1h6a1 1 0 0 0 1-1v-6a1 1 0 0 0-1-1zm-1 6h-4v-4h4zM15 44H9a1 1 0 0 0-1 1v6a1 1 0 0 0 1 1h6a1 1 0 0 0 1-1v-6a1 1 0 0 0-1-1zm-1 6h-4v-4h4zM26 44h-6a1 1 0 0 0-1 1v6a1 1 0 0 0 1 1h6a1 1 0 0 0 1-1v-6a1 1 0 0 0-1-1zm-1 6h-4v-4h4zM37 44h-6a1 1 0 0 0-1 1v6a1 1 0 0 0 1 1h6a1 1 0 0 0 1-1v-6a1 1 0 0 0-1-1zm-1 6h-4v-4h4z"/>
</symbol>

<symbol xmlns="http://www.w3.org/2000/svg" id="user1" fill="currentColor" viewBox="0 0 482.9 482.9" style="enable-background:new 0 0 482.9 482.9" xml:space="preserve"><path d="M239.7 260.2h3.2c29.3-.5 53-10.8 70.5-30.5 38.5-43.4 32.1-117.8 31.4-124.9-2.5-53.3-27.7-78.8-48.5-90.7C280.8 5.2 262.7.4 242.5 0H240.8c-11.1 0-32.9 1.8-53.8 13.7-21 11.9-46.6 37.4-49.1 91.1-.7 7.1-7.1 81.5 31.4 124.9 17.4 19.7 41.1 30 70.4 30.5zm-75.1-152.9c0-.3.1-.6.1-.8 3.3-71.7 54.2-79.4 76-79.4H241.9c27 .6 72.9 11.6 76 79.4 0 .3 0 .6.1.8.1.7 7.1 68.7-24.7 104.5-12.6 14.2-29.4 21.2-51.5 21.4h-1c-22-.2-38.9-7.2-51.4-21.4-31.7-35.6-24.9-103.9-24.8-104.5z"/><path d="M446.8 383.6v-.3c0-.8-.1-1.6-.1-2.5-.6-19.8-1.9-66.1-45.3-80.9-.3-.1-.7-.2-1-.3-45.1-11.5-82.6-37.5-83-37.8-6.1-4.3-14.5-2.8-18.8 3.3-4.3 6.1-2.8 14.5 3.3 18.8 1.7 1.2 41.5 28.9 91.3 41.7 23.3 8.3 25.9 33.2 26.6 56 0 .9 0 1.7.1 2.5.1 9-.5 22.9-2.1 30.9-16.2 9.2-79.7 41-176.3 41-96.2 0-160.1-31.9-176.4-41.1-1.6-8-2.3-21.9-2.1-30.9 0-.8.1-1.6.1-2.5.7-22.8 3.3-47.7 26.6-56 49.8-12.8 89.6-40.6 91.3-41.7 6.1-4.3 7.6-12.7 3.3-18.8-4.3-6.1-12.7-7.6-18.8-3.3-.4.3-37.7 26.3-83 37.8-.4.1-.7.2-1 .3-43.4 14.9-44.7 61.2-45.3 80.9 0 .9 0 1.7-.1 2.5v.3c-.1 5.2-.2 31.9 5.1 45.3 1 2.6 2.8 4.8 5.2 6.3 3 2 74.9 47.8 195.2 47.8s192.2-45.9 195.2-47.8c2.3-1.5 4.2-3.7 5.2-6.3 5-13.3 4.9-40 4.8-45.2z"/>
</symbol>

<symbol xmlns="http://www.w3.org/2000/svg" id="blog" fill="currentColor" viewBox="0 0 482.9 482.9">
  <path d="M256.013 0c-68.377 0-132.66 26.607-181.01 74.92-84.366 84.302-96.88 211.318-40.965 308.351L.693 491.178c-3.588 11.609 7.474 22.47 19.036 18.653l104.727-34.566C295.307 577.7 512 453.524 512 255.794 512 114.418 397.508 0 256.013 0zM134.476 446.21a15.009 15.009 0 0 0-12.781-1.602l-83.758 27.645 26.728-86.493a14.982 14.982 0 0 0-1.54-12.249C-28.568 223.89 79.674 29.976 256.013 29.976c124.611 0 225.989 101.302 225.989 225.818-.001 178.233-197.984 285.909-347.526 190.416z"/><path d="M376.007 180.854H196.016c-8.284 0-14.999 6.71-14.999 14.988s6.715 14.988 14.999 14.988h179.991c8.284 0 14.999-6.71 14.999-14.988s-6.716-14.988-14.999-14.988zM316.01 300.757H136.019c-8.284 0-14.999 6.71-14.999 14.988s6.715 14.988 14.999 14.988H316.01c8.284 0 14.999-6.71 14.999-14.988s-6.716-14.988-14.999-14.988zM376.007 240.806H136.019c-8.284 0-14.999 6.71-14.999 14.988s6.715 14.988 14.999 14.988h239.988c8.284 0 14.999-6.71 14.999-14.988s-6.716-14.988-14.999-14.988z"/><ellipse cx="376.007" cy="315.745" rx="14.999" ry="14.988"/><ellipse cx="136.019" cy="196.841" rx="14.999" ry="14.988"/>
</symbol>

<symbol xmlns="http://www.w3.org/2000/svg" id="analyse" fill="currentColor" viewBox="0 0 512 512" style="enable-background:new 0 0 512 512" xml:space="preserve"><path d="M34.103 261.27c-.13-.64-.32-1.27-.57-1.87-.25-.6-.56-1.18-.92-1.72a9.57 9.57 0 0 0-1.24-1.52c-.46-.47-.98-.88-1.52-1.25a10.098 10.098 0 0 0-3.6-1.49 9.898 9.898 0 0 0-3.91 0 10.098 10.098 0 0 0-3.6 1.49c-.54.37-1.05.78-1.52 1.25a10.153 10.153 0 0 0-2.16 3.24c-.25.61-.44 1.23-.57 1.87-.13.65-.19 1.31-.19 1.96s.059 1.31.19 1.95a10.098 10.098 0 0 0 1.49 3.6c.37.55.78 1.06 1.24 1.52.47.46.98.88 1.52 1.24a10.098 10.098 0 0 0 5.56 1.69 10.098 10.098 0 0 0 5.55-1.69c.54-.36 1.06-.78 1.52-1.24s.88-.97 1.24-1.52a10.098 10.098 0 0 0 1.69-5.55c0-.65-.07-1.31-.2-1.96zM355.954 119.595c-.13-.63-.32-1.26-.57-1.87-.25-.6-.56-1.18-.92-1.72a9.63 9.63 0 0 0-1.25-1.52 9.57 9.57 0 0 0-1.52-1.24c-.54-.36-1.12-.67-1.72-.92-.6-.25-1.23-.45-1.87-.57a9.898 9.898 0 0 0-3.91 0c-.64.12-1.27.32-1.87.57-.61.25-1.19.56-1.73.92-.55.36-1.06.78-1.52 1.24s-.88.97-1.24 1.52c-.36.54-.67 1.12-.92 1.72-.25.61-.44 1.24-.57 1.87-.13.65-.2 1.31-.2 1.961a10.098 10.098 0 0 0 .77 3.82c.25.61.56 1.19.92 1.73.36.55.78 1.06 1.24 1.52s.97.88 1.52 1.24c.54.36 1.12.67 1.73.92.6.25 1.23.44 1.87.57s1.3.2 1.95.2a10.098 10.098 0 0 0 3.83-.77c.6-.25 1.18-.56 1.72-.92a9.57 9.57 0 0 0 1.52-1.24 9.87 9.87 0 0 0 2.17-3.25 9.84 9.84 0 0 0 .76-3.82c0-.65-.06-1.31-.19-1.961zM256 153.973c-56.258 0-102.027 45.77-102.027 102.027 0 56.258 45.77 102.027 102.027 102.027S358.027 312.258 358.027 256 312.258 153.973 256 153.973zm0 184.053c-45.23 0-82.026-36.796-82.026-82.026S210.77 173.974 256 173.974 338.026 210.77 338.026 256 301.23 338.026 256 338.026z"/><path d="M256 194.275c-34.036 0-61.726 27.69-61.726 61.725 0 34.036 27.69 61.726 61.726 61.726s61.726-27.69 61.726-61.726c-.001-34.035-27.69-61.725-61.726-61.725zm0 103.45c-23.007 0-41.725-18.718-41.725-41.726 0-23.007 18.718-41.724 41.725-41.724s41.725 18.718 41.725 41.724c0 23.008-18.718 41.726-41.725 41.726z"/><path d="M382.18 139.34c-3.75-4.054-10.077-4.3-14.131-.549s-4.3 10.078-.549 14.131c26.066 28.173 40.421 64.78 40.421 103.078 0 68.035-46.042 128.032-110.808 146.269-5.46-17.513-21.825-30.262-41.112-30.262-19.287 0-35.652 12.749-41.112 30.262C150.116 384.033 104.08 324.051 104.08 256c0-67.94 46.076-128.029 110.808-146.268 5.46 17.513 21.825 30.261 41.112 30.261 23.739 0 43.052-19.313 43.052-43.052S279.739 53.89 256 53.89c-21.156 0-38.795 15.339-42.384 35.478-35.408 9.029-67.46 29.463-90.782 58.003-24.991 30.583-38.754 69.161-38.754 108.628 0 39.616 13.856 78.309 39.017 108.949 23.31 28.386 55.243 48.685 90.518 57.682 3.588 20.141 21.229 35.479 42.384 35.479 21.156 0 38.796-15.339 42.385-35.479 35.294-9.001 67.245-29.32 90.557-57.727C414.077 334.271 427.92 295.595 427.92 256c0-43.348-16.244-84.779-45.74-116.66zM256 73.891c12.71 0 23.051 10.34 23.051 23.051S268.71 119.993 256 119.993c-12.71 0-23.051-10.34-23.051-23.051 0-12.71 10.341-23.051 23.051-23.051zm0 364.219c-12.71 0-23.051-10.34-23.051-23.051 0-12.71 10.34-23.051 23.051-23.051 12.71 0 23.051 10.34 23.051 23.051 0 12.71-10.34 23.051-23.051 23.051z"/><path d="M491.518 310.934A242.083 242.083 0 0 0 497.814 256c0-133.337-108.478-241.815-241.815-241.815-81.368 0-156.708 40.593-201.757 108.642-20.323-5.486-42.185 4.673-50.74 24.563-9.38 21.807.73 47.18 22.537 56.559a42.803 42.803 0 0 0 16.952 3.503c16.689 0 32.605-9.761 39.608-26.04 7.466-17.358 2.583-36.974-10.717-48.987C113.325 70.858 181.945 34.185 256 34.185c122.308 0 221.814 99.505 221.814 221.814 0 16.44-1.809 32.775-5.382 48.685-17.901-1.438-35.55 8.513-43.031 25.903-7.467 17.359-2.583 36.977 10.72 48.99-41.431 61.68-109.62 98.235-184.122 98.235-105.781 0-197.326-75.294-217.675-179.031a9.998 9.998 0 0 0-11.738-7.888c-5.419 1.063-8.951 6.318-7.888 11.738 22.185 113.097 121.983 195.183 237.3 195.183 41.938 0 83.284-10.955 119.571-31.681 32.952-18.822 61.231-45.33 82.185-76.96a42.683 42.683 0 0 0 11.133 1.476c16.69 0 32.605-9.762 39.607-26.04 8.545-19.858.923-42.672-16.976-53.675zM64.226 173.51c-5.024 11.676-18.61 17.087-30.284 12.066-11.675-5.022-17.089-18.608-12.066-30.284 3.749-8.716 12.27-13.942 21.207-13.942 3.034 0 6.117.603 9.076 1.876 11.676 5.023 17.089 18.608 12.067 30.284zm425.898 183.197c-5.023 11.675-18.607 17.089-30.283 12.066h.001c-11.676-5.022-17.09-18.608-12.067-30.284 5.023-11.675 18.609-17.09 30.283-12.066 11.674 5.023 17.088 18.608 12.066 30.284z"/>
</symbol>

<symbol xmlns="http://www.w3.org/2000/svg" viewBox="0 0 512 512" id="calendar1" fill="currentColor" style="shape-rendering:geometricPrecision;text-rendering:geometricPrecision;image-rendering:optimizeQuality;fill-rule:evenodd;clip-rule:evenodd">
  <path style="opacity:.992" d="M99.5-.5h35c7.497 3.335 12.331 9.002 14.5 17 .5 15.663.667 31.33.5 47h212c-.167-15.67 0-31.337.5-47 2.169-7.998 7.003-13.665 14.5-17h35c7.72 2.56 12.553 7.893 14.5 16 .5 15.997.667 31.996.5 48 23.211-4.111 44.211.722 63 14.5 11.094 10.363 18.427 22.863 22 37.5v344c-7.115 28.115-24.782 45.449-53 52h-406c-28.218-6.551-45.885-23.885-53-52v-344c6.82-27.652 24.153-44.819 52-51.5 10.995-.5 21.995-.666 33-.5-.167-16.004 0-32.004.5-48 1.947-8.107 6.78-13.44 14.5-16Zm-57 215h426c.167 78.667 0 157.334-.5 236-1.833 9.833-7.667 15.667-17.5 17.5-130 .667-260 .667-390 0-9.833-1.833-15.667-7.667-17.5-17.5-.5-78.666-.667-157.333-.5-236Z"/>
</symbol>

<symbol xmlns="http://www.w3.org/2000/svg" viewBox="0 0 512 512" id="flat" fill="currentColor" style="shape-rendering:geometricPrecision;text-rendering:geometricPrecision;image-rendering:optimizeQuality;fill-rule:evenodd;clip-rule:evenodd"><path style="opacity:.945" d="M48.5-.5h14a341304.39 341304.39 0 0 1 95 44.5c11.63 8.818 13.797 19.651 6.5 32.5a25.564 25.564 0 0 1-8.5 6.5 2188.757 2188.757 0 0 1-77 31.5c-6.126-.959-9.792-4.459-11-10.5.619-3.57 2.285-6.57 5-9a5242.634 5242.634 0 0 1 75-32 5435.756 5435.756 0 0 0-89-42c-2.847-.944-5.347-.444-7.5 1.5-.5 58.332-.667 116.666-.5 175 12.46 4.312 19.126 13.145 20 26.5-.465 9.74-5.465 13.406-15 11a6.977 6.977 0 0 1-3.5-2.5 50.509 50.509 0 0 1-4-12c-5.333-5.333-10.667-5.333-16 0-2.492 5.858-.992 10.358 4.5 13.5 9.797.125 14.297 4.958 13.5 14.5-.967 3.121-2.8 5.454-5.5 7h-12c-18.39-7.106-25.557-20.439-21.5-40 3.444-8.946 9.61-14.946 18.5-18-.167-59.334 0-118.668.5-178 2.587-10.083 8.753-16.75 18.5-20Z"/><path style="opacity:.891" d="M90.5 215.5c8.625-1.866 13.625 1.467 15 10-1.375 8.695-6.375 11.862-15 9.5-7.945-6.497-7.945-12.997 0-19.5ZM125.5 215.5c8.625-1.866 13.625 1.467 15 10-1.375 8.695-6.375 11.862-15 9.5-7.945-6.497-7.945-12.997 0-19.5ZM160.5 215.5c8.625-1.866 13.625 1.467 15 10-1.375 8.695-6.375 11.862-15 9.5-7.945-6.497-7.945-12.997 0-19.5ZM195.5 215.5c8.625-1.866 13.625 1.467 15 10-1.375 8.695-6.375 11.862-15 9.5-7.945-6.497-7.945-12.997 0-19.5ZM230.5 215.5c8.625-1.866 13.625 1.467 15 10-1.375 8.695-6.375 11.862-15 9.5-7.945-6.497-7.945-12.997 0-19.5Z"/>
</symbol>

<symbol xmlns="http://www.w3.org/2000/svg" viewBox="0 0 512 512" id="organize" fill="currentColor" style="shape-rendering:geometricPrecision;text-rendering:geometricPrecision;image-rendering:optimizeQuality;fill-rule:evenodd;clip-rule:evenodd"><path style="opacity:.94" d="M511.5 319.5v21c-41.668-.167-83.335 0-125 .5a189.814 189.814 0 0 1 .5 33.5c-6.028 24.027-21.194 38.527-45.5 43.5-57.333.667-114.667.667-172 0-25.264-4.597-40.764-19.43-46.5-44.5a195.051 195.051 0 0 1 .5-33H-.5v-22c7.66-39.798 30.327-67.298 68-82.5-21.557-17.342-28.724-39.509-21.5-66.5 15.916-35.034 42.416-46.868 79.5-35.5 22.327 11.013 34.327 29.013 36 54-.812 19.624-8.812 35.624-24 48 11.852 4.55 22.685 10.717 32.5 18.5 13.547-10.36 28.381-18.527 44.5-24.5-31.204-23.617-40.704-54.117-28.5-91.5 13.579-29.3 36.579-44.633 69-46 38.55 2.105 62.883 21.772 73 59 5.262 32.96-5.571 59.126-32.5 78.5 16.607 6.05 31.774 14.55 45.5 25.5 9.456-8.651 20.29-15.151 32.5-19.5-21.355-18.067-28.189-40.567-20.5-67.5 8.244-21.576 23.744-34.409 46.5-38.5 26.214-2.973 46.381 6.527 60.5 28.5 11.635 23.931 9.635 46.598-6 68a70.588 70.588 0 0 1-10.5 9.5c27.147 10.146 46.981 28.313 59.5 54.5 3.946 9.473 6.78 19.14 8.5 29Zm-263-210c37.919.754 59.252 19.921 64 57.5-3.833 34.5-23 53.667-57.5 57.5-27.391-1.528-45.725-15.195-55-41-6.806-29.538 2.694-52.038 28.5-67.5 6.585-2.804 13.252-4.971 20-6.5Zm-153 37c18.43-1.368 32.597 5.632 42.5 21 9.986 22.076 5.486 40.576-13.5 55.5-21.668 11.371-40.502 7.871-56.5-10.5-13.23-23.208-9.397-43.042 11.5-59.5 5.103-3.062 10.436-5.229 16-6.5Zm307 0c23.194-.999 38.694 9.334 46.5 31 3.803 18.931-2.03 34.098-17.5 45.5-22.313 11.46-41.479 7.627-57.5-11.5-12.179-23.102-8.012-42.602 12.5-58.5 5.103-3.062 10.436-5.229 16-6.5Zm-156 95c53.931-.465 92.431 23.535 115.5 72 7.899 19.719 10.232 40.052 7 61-5.457 15.46-16.29 24.293-32.5 26.5a6639.18 6639.18 0 0 1-163 0c-17.409-2.742-28.575-12.575-33.5-29.5-3.754-48.989 14.746-86.822 55.5-113.5 15.996-9.056 32.996-14.556 51-16.5Zm-157 6c25.324-2.76 47.657 3.907 67 20-14.698 16.058-24.698 34.725-30 56h-110c7.392-41.723 31.725-67.056 73-76Zm307 0c43.748-3.035 74.582 15.299 92.5 55a186.405 186.405 0 0 1 5.5 20.5c-37.005.833-74.005.667-111-.5-5.577-20.708-15.577-38.875-30-54.5 12.559-10.613 26.892-17.447 43-20.5Z"/>
</symbol>

<symbol xmlns="http://www.w3.org/2000/svg" viewBox="0 0 512 512" id="organize1" fill="currentColor" style="shape-rendering:geometricPrecision;text-rendering:geometricPrecision;image-rendering:optimizeQuality;fill-rule:evenodd;clip-rule:evenodd"><path style="opacity:.957" d="M245.5 31.5c29.706-2.767 50.206 9.567 61.5 37 5.084 18.845 1.584 35.845-10.5 51 20.106 9.783 31.773 25.783 35 48 47.222 26.735 74.889 67.069 83 121 20.236 4.04 34.07 15.707 41.5 35 5.717 19.417 2.217 36.917-10.5 52.5 17.595 7.604 28.762 20.771 33.5 39.5a840.83 840.83 0 0 1 0 58c-1.167 2.5-3 4.333-5.5 5.5-46 .667-92 .667-138 0-2.635-1.961-4.469-4.461-5.5-7.5a202.115 202.115 0 0 0-1.5-20c-48.667 24-97.333 24-146 0a202.115 202.115 0 0 0-1.5 20c-1.077 3.413-3.244 5.913-6.5 7.5-46.417.99-92.75.656-139-1a11.529 11.529 0 0 1-3.5-4.5 498.367 498.367 0 0 1 1-62c5.012-17.21 15.845-29.043 32.5-35.5-15.174-19.933-17.008-41.1-5.5-63.5 8.611-13.39 20.778-21.39 36.5-24 8.111-53.931 35.778-94.265 83-121 3.227-22.217 14.894-38.217 35-48-15.411-20.28-16.911-41.613-4.5-64 8.826-12.648 20.659-20.648 35.5-24Zm4 22c18.428-1.377 30.595 6.623 36.5 24 2.285 22.771-7.881 35.771-30.5 39-22.619-3.229-32.785-16.229-30.5-39 4.094-12.261 12.26-20.261 24.5-24Zm-19 85c16.67-.167 33.337 0 50 .5 13.108 2.439 21.941 9.939 26.5 22.5a295.642 295.642 0 0 1 1.5 40h-106c-.167-11.671 0-23.338.5-35 3.348-15.18 12.514-24.513 27.5-28Zm-51 55a260.63 260.63 0 0 1 1.5 23c.786 3.083 2.619 5.249 5.5 6.5 46 .667 92 .667 138 0 2.881-1.251 4.714-3.417 5.5-6.5l1-23c34.29 22.627 54.29 54.293 60 95-29.513 10.679-42.513 31.679-39 63 1.929 9.359 6.096 17.526 12.5 24.5-21.986 9.34-33.986 26.007-36 50-48.667 28.667-97.333 28.667-146 0-2.011-23.99-14.011-40.657-36-50 13.229-15.794 16.729-33.627 10.5-53.5-6.727-17.059-18.894-28.226-36.5-33.5-1.091-2.064-1.258-4.231-.5-6.5 7.9-37.842 27.733-67.509 59.5-89Zm-80 116c19.085-1.397 31.585 6.936 37.5 25 1.692 19.97-7.141 32.47-26.5 37.5-19.382.622-31.215-8.545-35.5-27.5-.191-17.645 7.975-29.311 24.5-35Zm299 0c27.052-.119 39.218 13.214 36.5 40-5.846 16.173-17.346 23.673-34.5 22.5-19.359-5.03-28.192-17.53-26.5-37.5 3.683-12.849 11.85-21.182 24.5-25Zm-318 85c17.003-.167 34.003 0 51 .5 13.508 2.505 22.341 10.338 26.5 23.5a306.979 306.979 0 0 1 1.5 39h-106c-.166-12.338 0-24.671.5-37 3.424-14.258 12.257-22.925 26.5-26Zm299 0c17.003-.167 34.003 0 51 .5 14.421 2.755 23.254 11.255 26.5 25.5.5 12.329.667 24.662.5 37h-106c-.166-10.339 0-20.672.5-31 1.553-17.376 10.72-28.042 27.5-32Z"/>
</symbol>

<symbol xmlns="http://www.w3.org/2000/svg" viewBox="0 0 512 512" id="color" fill="currentColor" style="shape-rendering:geometricPrecision;text-rendering:geometricPrecision;image-rendering:optimizeQuality;fill-rule:evenodd;clip-rule:evenodd"><path style="opacity:.99" d="M241.5 24.5c100.156-1.364 173.989 41.636 221.5 129 33.326 73.519 30.993 145.852-7 217-42.518 70.368-105.018 108.868-187.5 115.5-79.86 2.31-145.027-27.19-195.5-88.5-48.985-67.207-60.651-140.54-35-220C70.308 95.865 129.474 46.032 215.5 28c8.813-1.184 17.48-2.35 26-3.5Zm109 83c26-1.145 43.167 10.521 51.5 35 3.372 16.18-.295 30.513-11 43L305.5 271c4.602 13.464.268 22.797-13 28-4.823.609-9.49.276-14-1L254 322.5c-3.864 24.188-17.031 41.021-39.5 50.5-34.025 13.588-69.025 23.588-105 30-1.507-.837-2.007-2.004-1.5-3.5a141.92 141.92 0 0 0 24-25c6.505-10.017 9.671-21.017 9.5-33a284.392 284.392 0 0 1-1.5-43c2.97-17.307 12.803-28.807 29.5-34.5a106.465 106.465 0 0 1 17-4.5 1012.368 1012.368 0 0 1 26.5-27c-4.176-13.135-.009-22.635 12.5-28.5 5.027-.938 9.86-.438 14.5 1.5a3020.503 3020.503 0 0 1 93.5-91.5c5.52-2.89 11.186-5.057 17-6.5Zm-24 30c3.638-.763 5.138.57 4.5 4L316.5 156c-3.611 1.254-5.111.088-4.5-3.5a305.702 305.702 0 0 0 14.5-15Zm-26 26c3.571-.092 4.738 1.574 3.5 5L273.5 199c-3.611 1.254-5.111.088-4.5-3.5a1422.753 1422.753 0 0 0 31.5-32Zm-65 159c2.743-.423 4.076.744 4 3.5a56.675 56.675 0 0 1-8.5 19.5c-1.765 2.274-3.932 3.941-6.5 5-1.41-.368-2.41-1.201-3-2.5 6.907-7.317 11.573-15.817 14-25.5Zm-27 32c3.752.001 4.752 1.667 3 5a321.704 321.704 0 0 1-48.5 17c-3.902-1.18-4.235-2.846-1-5 16.086-4.414 31.586-10.081 46.5-17Z"/><path style="opacity:.971" d="M348.5 113.5c23.042-2.572 38.875 6.761 47.5 28 3.761 13.857 1.428 26.524-7 38a10512.873 10512.873 0 0 1-86.5 86 2299.866 2299.866 0 0 1-57-57 10512.873 10512.873 0 0 1 86-86.5c5.231-3.898 10.897-6.731 17-8.5Zm-22 24a305.702 305.702 0 0 1-14.5 15c-.611 3.588.889 4.754 4.5 3.5l14.5-14.5c.638-3.43-.862-4.763-4.5-4Zm-26 26a1422.753 1422.753 0 0 1-31.5 32c-.611 3.588.889 4.754 4.5 3.5l30.5-30.5c1.238-3.426.071-5.092-3.5-5Z"/><path style="opacity:.937" d="M228.5 208.5c3.91-.237 7.577.596 11 2.5l60.5 60.5c4.281 9.154 2.115 16.321-6.5 21.5-5.843 1.324-11.176.324-16-3L221 233.5c-5.832-7.226-5.665-14.393.5-21.5l7-3.5Z"/><path style="opacity:.948" d="M215.5 237.5a4.934 4.934 0 0 1 3 .5l54.5 54.5c.667 1 .667 2 0 3a637.866 637.866 0 0 1-21.5 21 2299.866 2299.866 0 0 1-57-57c7.021-7.354 14.021-14.687 21-22Z"/><path style="opacity:.961" d="M182.5 265.5c3.35-.165 6.683.002 10 .5l54.5 54.5c-1.318 23.107-12.818 38.941-34.5 47.5-29.711 12.28-59.544 20.78-89.5 25.5 15.147-13.627 23.313-30.627 24.5-51a277.477 277.477 0 0 1-1.5-46c3.265-13.935 11.765-23.101 25.5-27.5 3.833-1.034 7.499-2.2 11-3.5Zm53 57c-2.427 9.683-7.093 18.183-14 25.5.59 1.299 1.59 2.132 3 2.5 2.568-1.059 4.735-2.726 6.5-5a56.675 56.675 0 0 0 8.5-19.5c.076-2.756-1.257-3.923-4-3.5Zm-27 32c-14.914 6.919-30.414 12.586-46.5 17-3.235 2.154-2.902 3.82 1 5a321.704 321.704 0 0 0 48.5-17c1.752-3.333.752-4.999-3-5Z"/>
</symbol>

<symbol xmlns="http://www.w3.org/2000/svg" viewBox="0 0 512 512" id="notif1" fill="currentColor" style="shape-rendering:geometricPrecision;text-rendering:geometricPrecision;image-rendering:optimizeQuality;fill-rule:evenodd;clip-rule:evenodd"><path style="opacity:.995" d="M245.5-.5h20c17.984 5.152 29.484 16.818 34.5 35l1 31c59.52 20.853 95.52 62.187 108 124a5672.796 5672.796 0 0 1 3 79c5.484 54.954 27.151 102.288 65 142 4.794 7.625 4.628 15.125-.5 22.5l-5 3c-144 .667-288 .667-432 0-8.415-4.348-11.248-11.181-8.5-20.5 20.05-21.747 36.384-46.08 49-73 10.218-23.657 16.552-48.324 19-74a5674.34 5674.34 0 0 1 3-79c12.501-61.833 48.501-103.166 108-124l1-31c5.016-18.182 16.516-29.848 34.5-35Zm5 31c10.922-1.303 17.422 3.364 19.5 14 .499 4.989.666 9.989.5 15h-30a86.618 86.618 0 0 1 1.5-20c1.688-4.185 4.521-7.185 8.5-9Z"/><path style="opacity:.957" d="M103.5 50.5c13.995-.506 20.162 6.16 18.5 20-3.197 6.203-7.53 11.536-13 16-21.166 24.329-35.5 52.329-43 84a578.804 578.804 0 0 0-7 52c-4.826 6.644-11.326 8.811-19.5 6.5-4.167-1.5-7-4.333-8.5-8.5-1.603-63.548 19.397-118.215 63-164 2.843-2.663 6.009-4.663 9.5-6Z"/><path style="opacity:.956" d="M399.5 50.5c5.401-.534 10.401.633 15 3.5 45.358 46.047 67.192 101.547 65.5 166.5-4.348 8.415-11.181 11.248-20.5 8.5-3.235-1.36-5.735-3.527-7.5-6.5-.637-41.558-11.97-79.892-34-115a191.493 191.493 0 0 0-26-31c-6.446-11.403-3.946-20.07 7.5-26Z"/><path style="opacity:.978" d="M267.5 511.5h-24c-26.142-5.256-45.142-19.923-57-44 46-1.333 92-1.333 138 0-11.85 24.075-30.85 38.741-57 44Z"/>
</symbol>

<symbol xmlns="http://www.w3.org/2000/svg" viewBox="0 0 512 512" id="error" fill="currentColor" style="shape-rendering:geometricPrecision;text-rendering:geometricPrecision;image-rendering:optimizeQuality;fill-rule:evenodd;clip-rule:evenodd"><path style="opacity:.975" d="M511.5 233.5v44c-4.263 44.287-18.763 84.954-43.5 122-13.296 10.97-26.296 10.637-39-1-6.916-10.425-7.249-21.091-1-32 35.672-57.719 42.338-118.719 20-183C418.533 112.331 366.033 68.831 290.5 53 218.056 42.703 156.223 63.536 105 115.5c-49.056 55.892-65.056 120.225-48 193 22.5 74.5 71 123 145.5 145.5 24.061 6.229 48.394 8.229 73 6a475.511 475.511 0 0 0 46.5-8.5c15.805 1.138 24.305 9.638 25.5 25.5-.496 8.658-4.162 15.658-11 21a97.185 97.185 0 0 1-21 7 540.02 540.02 0 0 1-37 6.5h-45c-86.839-9.815-153.006-51.815-198.5-126-40.78-76.742-44.114-155.075-10-235C59.822 78.683 115.655 31.85 192.5 10c87.106-20.386 165.106-2.386 234 54 49.755 45.676 78.088 102.176 85 169.5Z"/><path style="opacity:.992" d="M248.5 108.5c15.483-2.351 25.983 3.649 31.5 18a7478.76 7478.76 0 0 1 0 173c-5.506 14.509-16.006 20.342-31.5 17.5-9.167-2.5-15-8.333-17.5-17.5a7478.76 7478.76 0 0 1 0-173c2.683-9.182 8.517-15.182 17.5-18Z"/><path style="opacity:.96" d="M248.5 352.5c23.147-1.687 33.647 8.98 31.5 32-5.506 14.509-16.006 20.342-31.5 17.5-14.509-5.506-20.342-16.006-17.5-31.5 2.683-9.182 8.517-15.182 17.5-18Z"/>
</symbol>

<symbol xmlns="http://www.w3.org/2000/svg" viewBox="0 0 512 512" id="down" fill="currentColor" style="shape-rendering:geometricPrecision;text-rendering:geometricPrecision;image-rendering:optimizeQuality;fill-rule:evenodd;clip-rule:evenodd"><path style="opacity:.989" d="M511.5 133.5v13l-4.5 9L272.5 390c-11.333 8.667-22.667 8.667-34 0L4 155.5l-4.5-9v-13c3.342-10.168 10.342-16.335 21-18.5 156.667-.667 313.333-.667 470 0 10.658 2.165 17.658 8.332 21 18.5Z"/>
</symbol>

<symbol  xmlns="http://www.w3.org/2000/svg" viewBox="0 0 512 512" id="setting" fill="currentColor">
  <path d="m501.744 225.703-42.745-14.25a206.894 206.894 0 0 0-4.918-18.382l29.889-33.705a15 15 0 0 0 1.768-17.452l-16.066-27.827a14.998 14.998 0 0 0-15.997-7.196l-44.223 9.048a210.677 210.677 0 0 0-13.39-13.394l9.048-44.218a15 15 0 0 0-7.195-15.998l-27.828-16.067a14.997 14.997 0 0 0-17.452 1.768L318.93 57.919a207.78 207.78 0 0 0-18.381-4.921l-14.252-42.742A15.002 15.002 0 0 0 272.066 0h-32.133a14.998 14.998 0 0 0-14.229 10.255l-14.252 42.742a208.126 208.126 0 0 0-18.381 4.921L159.366 28.03a15 15 0 0 0-17.452-1.768l-27.828 16.067a14.998 14.998 0 0 0-7.195 15.998l9.048 44.218a210.154 210.154 0 0 0-13.39 13.394l-44.223-9.048a14.999 14.999 0 0 0-15.997 7.196l-16.066 27.827a14.997 14.997 0 0 0 1.768 17.452l29.889 33.705a206.894 206.894 0 0 0-4.918 18.382l-42.745 14.25A15 15 0 0 0 0 239.933v32.134a14.999 14.999 0 0 0 10.258 14.23L53 300.54c1.356 6.2 3 12.344 4.919 18.389L28.03 352.634a15 15 0 0 0-1.768 17.452l16.066 27.827a15 15 0 0 0 15.997 7.196l44.223-9.048a209.572 209.572 0 0 0 13.39 13.39l-9.048 44.222a15 15 0 0 0 7.195 15.997l27.828 16.066a14.996 14.996 0 0 0 17.452-1.768l33.705-29.889a207.054 207.054 0 0 0 18.382 4.918l14.25 42.745a15 15 0 0 0 14.23 10.256h32.133a15 15 0 0 0 14.23-10.256l14.25-42.745c6.198-1.356 12.34-3 18.382-4.918l33.705 29.889a15 15 0 0 0 17.452 1.768l27.828-16.066a15 15 0 0 0 7.195-15.997l-9.048-44.222a209.832 209.832 0 0 0 13.39-13.39l44.223 9.048a14.994 14.994 0 0 0 15.997-7.196l16.066-27.827a14.997 14.997 0 0 0-1.768-17.452l-29.889-33.705a206.956 206.956 0 0 0 4.919-18.389l42.742-14.243a14.999 14.999 0 0 0 10.258-14.23v-32.134a14.993 14.993 0 0 0-10.253-14.23zM314.377 124.87l-40.678 70.466c-11.734-3.422-24.011-3.278-35.385.038l-40.673-70.44c36.236-16.078 78.666-17.046 116.736-.064zM289.2 256c0 18.307-14.894 33.2-33.2 33.2s-33.2-14.894-33.2-33.2 14.894-33.2 33.2-33.2 33.2 14.893 33.2 33.2zM171.666 139.932l40.671 70.442c-8.558 8.193-14.821 18.754-17.723 30.627h-81.365c4.325-41.463 26.377-77.725 58.417-101.069zm0 232.136c-32.04-23.344-54.091-59.606-58.417-101.068h81.365c2.902 11.873 9.166 22.434 17.723 30.626zm25.957 15.062 40.678-70.466c11.734 3.423 24.011 3.278 35.385-.038l40.673 70.44c-36.236 16.078-78.666 17.046-116.736.064zm142.711-15.062-40.671-70.442c8.557-8.193 14.821-18.754 17.723-30.626h81.365c-4.325 41.461-26.377 77.724-58.417 101.068zM317.387 241c-2.902-11.873-9.166-22.434-17.723-30.627l40.671-70.442c32.04 23.344 54.092 59.607 58.417 101.068h-81.365z"/>
</symbol>

<symbol xmlns="http://www.w3.org/2000/svg" viewBox="0 0 512 512" id="logout" fill="currentColor" style="shape-rendering:geometricPrecision;text-rendering:geometricPrecision;image-rendering:optimizeQuality;fill-rule:evenodd;clip-rule:evenodd">
  <path style="opacity:.951" d="M232.5-.5h46c99.771 12.949 170.938 64.949 213.5 156 10.136 24.879 16.636 50.546 19.5 77v46c-12.949 99.771-64.949 170.938-156 213.5-24.878 10.136-50.545 16.636-77 19.5h-46c-99.773-12.951-170.94-64.951-213.5-156-10.136-24.879-16.636-50.546-19.5-77v-46C12.449 132.729 64.449 61.562 155.5 19c24.879-10.136 50.546-16.636 77-19.5Zm21 24c90.238 3.176 158.404 43.176 204.5 120 33.561 64.521 37.561 130.854 12 199-32.655 73.646-88.155 120.146-166.5 139.5-91.108 15.635-166.942-11.199-227.5-80.5-54.157-71.09-65.824-148.757-35-233C76.85 88.003 138.351 40.503 225.5 26c9.485-.853 18.819-1.687 28-2.5Z"/><path style="opacity:.951" d="M222.5 114.5c45.98-3.739 85.147 10.595 117.5 43 4.374 9.218 1.874 15.718-7.5 19.5-3.094.652-6.094.318-9-1-37.416-36.152-80.749-45.485-130-28-54.284 26.726-77.451 70.226-69.5 130.5 13.694 52.361 47.194 83.194 100.5 92.5 38.759 3.438 71.759-8.562 99-36 10.421-3.292 16.755.375 19 11a24.879 24.879 0 0 1-2.5 7.5c-40.248 39.273-87.748 51.773-142.5 37.5-45.914-14.913-77.08-45.08-93.5-90.5-16.754-58.155-3.588-108.321 39.5-150.5 22.903-19.451 49.237-31.285 79-35.5Z"/><path style="opacity:.969" d="M358.5 200.5c3.644.359 6.977 1.525 10 3.5l42.5 42.5c4.667 6 4.667 12 0 18a1430.235 1430.235 0 0 1-45.5 44.5c-13.207 2.462-19.04-3.038-17.5-16.5a406.15 406.15 0 0 1 23.5-24.5l-139-1c-7.214-5.096-8.714-11.596-4.5-19.5a36.078 36.078 0 0 1 4.5-3.5l139-1a211.016 211.016 0 0 1-23.5-25.5c-1.964-9.177 1.536-14.844 10.5-17Z"/>
  </symbol>

  <symbol version="1.0" xmlns="http://www.w3.org/2000/svg" id="carte" fill="currentColor" viewBox="0 0 512 512"><path d="M72 63.5c-10.3 3.2-20.7 13.2-24.6 23.8-1.9 5.1-1.9 9.3-1.9 169.2v164l2.7 5.7c5.3 11.4 12.5 18 23.6 21.7L78 450l180.8-.2 180.7-.3 5.7-2.7c12-5.6 20.7-17 22.8-29.9 1.4-8.8 1.4-312.9 0-321.9-2.4-14.9-12.2-26.5-26.4-31.3-4.6-1.6-19.6-1.7-185-1.6-151.2 0-180.8.3-184.6 1.4zm366.7 14c5.9 2.5 9.6 5.9 12.8 11.6l3 5.4v47l-197.8.3-197.8.2.3-24.2c.3-22.9.4-24.5 2.5-28.5 2.6-4.8 8.6-10.2 13.4-11.9 2.6-1 44.3-1.3 181.7-1.3 157.9-.1 178.7.1 181.9 1.4zm16.1 208.7c-.3 129.7-.3 130.3-2.4 134.8-2.3 5.1-7.1 10.2-11.8 12.8-2.9 1.6-15 1.7-182.6 2l-179.6.2-5.4-2.7c-6.1-3.1-11.3-9.2-13-15.1-.6-2.5-1-47-1-133V156h396l-.2 130.2z"/><path d="M102.8 102.4c-2.8 2.1-3.8 5.8-2.3 9.2 3.1 7.5 13.5 5.1 13.5-3 0-5.8-6.8-9.6-11.2-6.2zM145.6 103.1c-5.1 4-2.3 12.9 4.2 12.9 5.7 0 9.6-5.6 7.1-10.3-2.7-5-7-6-11.3-2.6zM188.6 103.1c-3.4 2.7-3.6 7.7-.3 10.7 4.9 4.6 12.1 1.4 12.1-5.3 0-6.7-6.4-9.6-11.8-5.4zM90 187.2c-2 2.1-2 3.1-2 67.4 0 64.4 0 65.2 2.1 67.8l2 2.6h132.8l2-2.6c2.1-2.6 2.1-3.4 2.1-67.4s0-64.8-2.1-67.4l-2-2.6H92.1l-2.1 2.2zm125 67.9v56l-2.6-.3c-2.3-.3-2.9-1-4.1-5.7-1.7-6.9-6.6-16-11.5-21.6-16.1-18.3-45.6-22.2-66.4-8.7-11.7 7.6-18.7 17.7-22.4 31.9-.9 3.6-1.5 4.3-3.5 4.3H102V199h113v56.1zm-48.6 26.4c9.9 1.6 20.7 10 25.6 19.8 5.3 10.6 8.4 9.7-33.9 9.7h-37l.9-3c1.8-6.2 5.6-12.2 10.7-17.1 6-5.7 11.6-8.5 19.4-9.8 5.4-.9 6.7-.8 14.3.4z"/><path d="M148.9 205.3c-13 4.9-20.4 15.4-20.3 28.7.1 11.5 6.8 22.1 17.3 27.2 6.9 3.4 18.7 3.2 25.7-.4 10.5-5.5 16.6-15.4 16.6-26.9 0-11.5-6.3-21.8-16.5-27.1-5.3-2.7-17.5-3.5-22.8-1.5zm16.8 14.4c1.9.9 4.6 3.3 6 5.4 2.2 3.3 2.5 4.7 2.1 9.7-.5 6.9-2.7 10.4-8.4 13.2-5.1 2.5-9.4 2.5-14.3 0-9.3-4.7-11.5-17.3-4.3-25.4 4.1-4.5 12.7-5.9 18.9-2.9zM253 187c-2.9 2.9-2.6 7.4.6 9.9 2.7 2.1 3.2 2.1 84.1 2.1 91.3 0 87.2.4 87.3-7.6 0-6.8 5.4-6.4-86.8-6.4-81.9 0-83.2 0-85.2 2zM253 230c-2.9 2.9-2.6 7.4.6 9.9 2.6 2 3.7 2.1 44.4 2.1 40.7 0 41.8-.1 44.4-2.1 3.2-2.5 3.5-7 .6-9.9-1.9-1.9-3.3-2-45-2s-43.1.1-45 2zM92.3 350c-4.4 1.8-5.6 7.3-2.3 10.8l2.1 2.2h315.8l2.1-2.7c1.5-1.9 1.9-3.5 1.5-5.3-1.5-5.9 10.7-5.5-160.3-5.7-89.1-.1-157.6.2-158.9.7zM93.3 392.7c-4.9.9-6.9 7.7-3.3 11.3 2 2 3.1 2 160.1 1.8l158.2-.3 2-2.7c1.7-2.3 1.8-3.1.8-5.7-.8-1.8-2.4-3.4-4.3-4-3-1.1-308.2-1.4-313.5-.4z"/>
  </symbol>

  <symbol xmlns="http://www.w3.org/2000/svg" id="subscipber" fill="currentColor" viewBox="0 0 512 512" style="shape-rendering:geometricPrecision;text-rendering:geometricPrecision;image-rendering:optimizeQuality;fill-rule:evenodd;clip-rule:evenodd"><path style="opacity:.961" d="M96.5 95.5c106.001-.167 212.001 0 318 .5 16.833 4.833 27.667 15.667 32.5 32.5a552.224 552.224 0 0 1 0 47c-7.964 8.503-14.964 7.836-21-2l-1-40c-2.5-7.833-7.667-13-15.5-15.5a23704.398 23704.398 0 0 0-308 0c-7.833 2.5-13 7.667-15.5 15.5-.667 70.667-.667 141.333 0 212 2.5 7.833 7.667 13 15.5 15.5l92 1a43.056 43.056 0 0 1 16 7 2961.86 2961.86 0 0 0 46 45.5 2961.86 2961.86 0 0 0 46-45.5 43.056 43.056 0 0 1 16-7c31.727-.022 63.394-.689 95-2 6.32-2.986 10.487-7.819 12.5-14.5l1-125c6.036-9.836 13.036-10.503 21-2 .667 44 .667 88 0 132-4.833 16.833-15.667 27.667-32.5 32.5-32.048.029-64.048.696-96 2a1729.362 1729.362 0 0 0-50 49c-8.667 4.667-17.333 4.667-26 0a1729.362 1729.362 0 0 0-50-49 2407.443 2407.443 0 0 0-96-2c-16.833-4.833-27.667-15.667-32.5-32.5-.667-74-.667-148 0-222 5.016-16.849 15.85-27.849 32.5-33Z"/><path style="opacity:.947" d="M182.5 158.5c23.477-.017 39.977 10.649 49.5 32 5.866 19.683 1.7 36.85-12.5 51.5 30.62 16.069 42.12 40.902 34.5 74.5-6.277 5.436-12.277 5.103-18-1 1.222-40.776-18.611-59.943-59.5-57.5-28.549 7.598-41.382 26.098-38.5 55.5-4.461 6.82-10.294 8.32-17.5 4.5a15.83 15.83 0 0 1-3.5-5.5c-4.38-32.073 7.786-55.573 36.5-70.5-16.016-15.918-19.849-34.418-11.5-55.5 8.48-16.652 21.98-25.986 40.5-28Zm-3 23c19.043-1.781 30.043 6.719 33 25.5-2.814 17.582-13.147 25.915-31 25-19.549-6.597-25.382-19.43-17.5-38.5 4.02-5.581 9.186-9.581 15.5-12Z"/><path style="opacity:.939" d="M381.5 173.5c12.861.068 17.027 6.068 12.5 18l-87 85-41-41c-3.324-6.376-2.158-11.876 3.5-16.5 4.487-2.039 8.82-1.706 13 1l24.5 24.5a2476.204 2476.204 0 0 1 74.5-71Z"/>
  </symbol>

  <symbol xmlns="http://www.w3.org/2000/svg" id="plan" fill="currentColor" viewBox="0 0 512 512" style="shape-rendering:geometricPrecision;text-rendering:geometricPrecision;image-rendering:optimizeQuality;fill-rule:evenodd;clip-rule:evenodd"><path style="opacity:.954" d="M183.5-.5h144c8.27 3.773 13.437 10.106 15.5 19a256.122 256.122 0 0 1 0 32c-1.637 10.302-7.471 16.802-17.5 19.5-46.667.667-93.333.667-140 0-9.575-2.576-15.409-8.743-17.5-18.5-.667-11-.667-22 0-33 1.869-9.094 7.035-15.427 15.5-19Zm7 15c43.335-.167 86.668 0 130 .5 3.073.739 5.24 2.572 6.5 5.5.667 9.667.667 19.333 0 29-.833 2.167-2.333 3.667-4.5 4.5-44.667.667-89.333.667-134 0-2.167-.833-3.667-2.333-4.5-4.5a210.395 210.395 0 0 1 0-29c1.436-2.942 3.603-4.942 6.5-6Z"/><path style="opacity:.949" d="M423.5 511.5h-336c-14.632-5.14-22.798-15.474-24.5-31a44519.024 44519.024 0 0 1 0-422C64.783 40.418 74.617 29.918 92.5 27l25-.5c9.404-.127 18.737.373 28 1.5 3.622 4.002 3.956 8.335 1 13a729.478 729.478 0 0 1-53 2c-8.644 2.104-13.477 7.604-14.5 16.5-.667 140-.667 280 0 420 1.5 9.5 7 15 16.5 16.5 106.667.667 213.333.667 320 0 9.5-1.5 15-7 16.5-16.5.667-140 .667-280 0-420-1.023-8.896-5.856-14.396-14.5-16.5l-51-1c-3.016-1.529-4.349-4.029-4-7.5-.062-4.109 1.938-6.609 6-7.5a625.219 625.219 0 0 1 50 0c17.883 2.918 27.717 13.418 29.5 31.5a44499 44499 0 0 1 0 422c-1.702 15.526-9.868 25.86-24.5 31Zm-296-389c12.338-.167 24.671 0 37 .5l1.5 1.5a95.848 95.848 0 0 1 1.5 19l-.5 17a11.333 11.333 0 0 1-1.5 3.5 179.71 179.71 0 0 1-37 1 6.978 6.978 0 0 1-3.5-2.5 342.33 342.33 0 0 1 0-37c.698-1.191 1.531-2.191 2.5-3Zm-1 126c12.671-.167 25.338 0 38 .5l1.5 1.5a167.58 167.58 0 0 1 1 36 6.978 6.978 0 0 1-2.5 3.5 250.1 250.1 0 0 1-38.5-.5 111.002 111.002 0 0 1-1.5-20.5l.5-18.5c.717-.544 1.217-1.211 1.5-2Zm2 125c11.671-.167 23.338 0 35 .5.916.374 1.75.874 2.5 1.5a104.886 104.886 0 0 1 1.5 19.5l-.5 16.5a11.333 11.333 0 0 1-1.5 3.5 186.375 186.375 0 0 1-38 1l-2.5-2.5a342.33 342.33 0 0 1 0-37 30.233 30.233 0 0 1 3.5-3Z"/><path style="opacity:.943" d="M124.5 106.5c14.337-.167 28.671 0 43 .5 9.172 2.837 14.339 9.004 15.5 18.5a241.257 241.257 0 0 1-1 42c-2.167 6.167-6.333 10.333-12.5 12.5a552.224 552.224 0 0 1-47 0c-6.901-2.568-11.401-7.402-13.5-14.5a462.27 462.27 0 0 1 0-43c2.015-8.514 7.182-13.847 15.5-16Zm3 16c-.969.809-1.802 1.809-2.5 3a342.33 342.33 0 0 0 0 37 6.978 6.978 0 0 0 3.5 2.5 179.71 179.71 0 0 0 37-1 11.333 11.333 0 0 0 1.5-3.5l.5-17a95.848 95.848 0 0 0-1.5-19l-1.5-1.5a684.346 684.346 0 0 0-37-.5Z"/><path style="opacity:.93" d="M228.5 116.5c56.334-.167 112.668 0 169 .5 5.035 3.013 6.202 7.18 3.5 12.5a6.978 6.978 0 0 1-3.5 2.5c-56.333.667-112.667.667-169 0-6.611-5.202-6.611-10.369 0-15.5Z"/><path style="opacity:.981" d="M227.5 155.5c30.002-.167 60.002 0 90 .5 5.333 4.667 5.333 9.333 0 14-30 .667-60 .667-90 0-5.268-4.829-5.268-9.663 0-14.5Z"/><path style="opacity:.933" d="M122.5 232.5c15.337-.167 30.67 0 46 .5 8.554 3.224 13.388 9.391 14.5 18.5.667 12 .667 24 0 36-1.161 9.496-6.328 15.663-15.5 18.5a484.008 484.008 0 0 1-44 0c-7.5-2.167-12.333-7-14.5-14.5a484.008 484.008 0 0 1 0-44c2.263-7.093 6.763-12.093 13.5-15Zm4 16c-.283.789-.783 1.456-1.5 2l-.5 18.5c-.13 6.935.37 13.768 1.5 20.5a250.1 250.1 0 0 0 38.5.5 6.978 6.978 0 0 0 2.5-3.5 167.58 167.58 0 0 0-1-36l-1.5-1.5a721.824 721.824 0 0 0-38-.5Z"/><path style="opacity:.931" d="M227.5 242.5c57.001-.167 114.001 0 171 .5 4.253 3.42 5.087 7.587 2.5 12.5a29.517 29.517 0 0 1-4.5 2.5c-55.667.667-111.333.667-167 0-7.094-4.307-7.76-9.474-2-15.5Z"/><path style="opacity:.926" d="M229.5 280.5c28.669-.167 57.335 0 86 .5 7.487 4.606 7.821 9.606 1 15-29.333.667-58.667.667-88 0-5.068-2.983-6.235-7.149-3.5-12.5 1.409-1.281 2.909-2.281 4.5-3Z"/><path style="opacity:.933" d="M126.5 357.5c13.004-.167 26.004 0 39 .5 10.755 2.088 16.588 8.588 17.5 19.5.667 12 .667 24 0 36-1.299 9.963-6.799 16.13-16.5 18.5-14 .667-28 .667-42 0-8.5-1.833-13.667-7-15.5-15.5a462.27 462.27 0 0 1 0-43c2.898-8.739 8.731-14.072 17.5-16Zm2 16a30.233 30.233 0 0 0-3.5 3 342.33 342.33 0 0 0 0 37l2.5 2.5c12.762.96 25.429.627 38-1a11.333 11.333 0 0 0 1.5-3.5l.5-16.5a104.886 104.886 0 0 0-1.5-19.5 9.454 9.454 0 0 0-2.5-1.5 612.388 612.388 0 0 0-35-.5Z"/><path style="opacity:.931" d="M230.5 367.5c55.334-.167 110.668 0 166 .5 5.424 2.017 7.258 5.85 5.5 11.5l-3.5 3.5c-57 .667-114 .667-171 0-5.849-6.587-4.849-11.754 3-15.5Z"/><path style="opacity:.926" d="M228.5 406.5c29.335-.167 58.669 0 88 .5 6.821 5.394 6.487 10.394-1 15-28.667.667-57.333.667-86 0-4.124-.982-6.124-3.648-6-8 .331-3.48 1.998-5.98 5-7.5Z"/>
  </symbol>

  <symbol xmlns="http://www.w3.org/2000/svg" id="play" fill="currentColor" viewBox="0 0 494.148 494.148" style="enable-background:new 0 0 494.148 494.148" xml:space="preserve"><path d="M405.284 201.188 130.804 13.28C118.128 4.596 105.356 0 94.74 0 74.216 0 61.52 16.472 61.52 44.044v406.124c0 27.54 12.68 43.98 33.156 43.98 10.632 0 23.2-4.6 35.904-13.308l274.608-187.904c17.66-12.104 27.44-28.392 27.44-45.884.004-17.48-9.664-33.764-27.344-45.864z"/>
  </symbol>

  <symbol xmlns="http://www.w3.org/2000/svg" id="envelop" fill="currentColor" viewBox="0 0 512 512" style="enable-background:new 0 0 512 512" xml:space="preserve"><path d="M467 61H45C20.218 61 0 81.196 0 106v300c0 24.72 20.128 45 45 45h422c24.72 0 45-20.128 45-45V106c0-24.72-20.128-45-45-45zm-6.214 30L256.954 294.833 51.359 91h409.427zM30 399.788V112.069l144.479 143.24L30 399.788zM51.213 421l144.57-144.57 50.657 50.222c5.864 5.814 15.327 5.795 21.167-.046L317 277.213 460.787 421H51.213zM482 399.787 338.213 256 482 112.212v287.575z"/>
  </symbol>

  <symbol xmlns="http://www.w3.org/2000/svg" id="telephone" fill="currentColor" viewBox="0 0 512.076 512.076" style="enable-background:new 0 0 512.076 512.076" xml:space="preserve"><path d="m498.639 395.039-103.646-69.12c-13.153-8.701-30.784-5.838-40.508 6.579l-30.191 38.818a12.903 12.903 0 0 1-16.546 3.482l-5.743-3.166c-19.038-10.377-42.726-23.296-90.453-71.04s-60.672-71.45-71.049-90.453l-3.149-5.743a12.92 12.92 0 0 1 3.413-16.606l38.792-30.182c12.412-9.725 15.279-27.351 6.588-40.508l-69.12-103.646C108.12.056 90.25-3.966 76.461 4.323L33.12 30.358A61.136 61.136 0 0 0 5.242 66.539c-15.607 56.866-3.866 155.008 140.706 299.597 115.004 114.995 200.619 145.92 259.465 145.92a151.181 151.181 0 0 0 40.107-5.239 61.079 61.079 0 0 0 36.181-27.878l26.061-43.315c8.301-13.792 4.281-31.673-9.123-40.585zm-5.581 31.829-26.001 43.341a44.103 44.103 0 0 1-26.027 20.173c-52.497 14.413-144.213 2.475-283.008-136.32S7.29 123.559 21.703 71.054a44.17 44.17 0 0 1 20.198-26.061l43.341-26.001c5.983-3.6 13.739-1.855 17.604 3.959l37.547 56.371 31.514 47.266c3.774 5.707 2.534 13.356-2.85 17.579l-38.801 30.182c-11.808 9.029-15.18 25.366-7.91 38.332l3.081 5.598c10.906 20.002 24.465 44.885 73.967 94.379 49.502 49.493 74.377 63.053 94.37 73.958l5.606 3.089c12.965 7.269 29.303 3.898 38.332-7.91l30.182-38.801c4.224-5.381 11.87-6.62 17.579-2.85l103.637 69.12c5.818 3.862 7.563 11.622 3.958 17.604zM290.161 85.39c80.081.089 144.977 64.986 145.067 145.067 0 4.713 3.82 8.533 8.533 8.533s8.533-3.82 8.533-8.533c-.099-89.503-72.63-162.035-162.133-162.133-4.713 0-8.533 3.82-8.533 8.533s3.82 8.533 8.533 8.533z"/><path d="M290.161 136.59c51.816.061 93.806 42.051 93.867 93.867a8.533 8.533 0 0 0 17.066 0c-.071-61.238-49.696-110.863-110.933-110.933-4.713 0-8.533 3.82-8.533 8.533s3.82 8.533 8.533 8.533z"/><path d="M290.161 187.79c23.552.028 42.638 19.114 42.667 42.667a8.533 8.533 0 0 0 17.066 0c-.038-32.974-26.759-59.696-59.733-59.733-4.713 0-8.533 3.82-8.533 8.533s3.82 8.533 8.533 8.533z"/>
  </symbol>

<symbol xmlns="http://www.w3.org/2000/svg" id="map" fill="currentColor" viewBox="0 0 512.076 512.076" style="shape-rendering:geometricPrecision;text-rendering:geometricPrecision;image-rendering:optimizeQuality;fill-rule:evenodd;clip-rule:evenodd"><path style="opacity:.961" d="M235.5-.5h40c64.874 8.681 114.708 40.681 149.5 96 27.667 49.341 34.001 101.341 19 156-6.144 20.953-15.478 40.286-28 58a14422.189 14422.189 0 0 0-150.5 202h-20A14422.189 14422.189 0 0 0 95 309.5c-37.663-56.633-45.663-117.299-24-182C95.125 67.374 137.959 27.208 199.5 7c11.982-3.27 23.982-5.77 36-7.5Zm19 30c68.512 2.986 118.679 34.653 150.5 95 19.152 43.788 20.485 88.121 4 133a201.52 201.52 0 0 1-12 24 13061.883 13061.883 0 0 1-141.5 190 13061.883 13061.883 0 0 1-141.5-190c-26.446-46.299-30.78-94.632-13-145 29.32-66.917 80.487-102.584 153.5-107Zm-7 132c20.977-2.493 34.81 6.174 41.5 26 2.984 20.995-5.516 34.828-25.5 41.5-20.712 2.566-34.545-5.934-41.5-25.5-2.773-21.022 5.727-35.022 25.5-42Z"/><path style="opacity:.962" d="M243.5 130.5c40.196-3.276 65.696 14.391 76.5 53 3.76 40.22-13.74 65.72-52.5 76.5-40.22 3.76-65.72-13.74-76.5-52.5-3.556-40.242 13.944-65.909 52.5-77Zm4 31c-19.773 6.978-28.273 20.978-25.5 42 6.955 19.566 20.788 28.066 41.5 25.5 19.984-6.672 28.484-20.505 25.5-41.5-6.69-19.826-20.523-28.493-41.5-26Z"/>
</symbol>

<symbol xmlns="http://www.w3.org/2000/svg" id="work" fill="currentColor" viewBox="0 0 512.076 512.076" style="shape-rendering:geometricPrecision;text-rendering:geometricPrecision;image-rendering:optimizeQuality;fill-rule:evenodd;clip-rule:evenodd"><path style="opacity:.965" d="M197.5 32.5c38.668-.167 77.335 0 116 .5 24.833 4.833 39.667 19.667 44.5 44.5 1.76 19.244-6.74 26.744-25.5 22.5-6.945-4.138-10.112-10.304-9.5-18.5-1.833-7.167-6.333-11.667-13.5-13.5-36-.667-72-.667-108 0-7.167 1.833-11.667 6.333-13.5 13.5-.234 17.194-8.734 24.027-25.5 20.5-7.24-3.812-10.573-9.812-10-18 2.444-28.27 17.444-45.437 45-51.5Z"/><path style="opacity:.975" d="M511.5 207.5v53c-2.658 6.813-7.658 10.98-15 12.5a47700.286 47700.286 0 0 0-207 59c-22.667 6-45.333 6-68 0a59312.713 59312.713 0 0 1-186-53.5l-1 69.5c-.148 24.548.352 49.048 1.5 73.5 7.308 21.97 22.475 34.47 45.5 37.5 116 .667 232 .667 348 0 20.494-2.321 34.994-12.821 43.5-31.5a86.35 86.35 0 0 0 3-10l1-95c4.444-14.303 13.611-18.47 27.5-12.5 2.954 2.441 5.287 5.275 7 8.5v103c-8.934 41.763-34.601 65.93-77 72.5-119.333.667-238.667.667-358 0-42.4-6.57-68.066-30.737-77-72.5v-172c4.307-9.323 11.64-13.156 22-11.5a47708.364 47708.364 0 0 1 207 59c18 6 36 6 54 0a41501.676 41501.676 0 0 0 193-55.5c6.272-27.718-2.062-49.552-25-65.5-6.903-3.559-14.236-5.559-22-6a29914.293 29914.293 0 0 0-346 0c-15.71 1.438-28.543 8.272-38.5 20.5-7.315 14.994-17.982 17.994-32 9-5.443-7.438-5.776-15.105-1-23 14.253-22.24 34.42-35.74 60.5-40.5a33839.33 33839.33 0 0 1 368 0c39.18 8.681 63.18 32.514 72 71.5Z"/>
</symbol>

<symbol xmlns="http://www.w3.org/2000/svg" id="family" fill="currentColor" viewBox="0 0 512.076 512.076" style="shape-rendering:geometricPrecision;text-rendering:geometricPrecision;image-rendering:optimizeQuality;fill-rule:evenodd;clip-rule:evenodd"><path style="opacity:.944" d="M232.5-.5h46c50.101 5.054 95.101 22.887 135 53.5 2.86 3.681 3.693 7.848 2.5 12.5-2.919 5.525-7.419 7.358-13.5 5.5-74.825-55.093-155.491-65.427-242-31C78.816 79.385 32.316 144.219 21 234.5c-5.408 77.807 20.259 143.14 77 196 15.948-60.615 53.781-100.448 113.5-119.5 66.735-15.64 122.902 1.86 168.5 52.5 15.522 20.044 26.522 42.377 33 67 56.74-52.859 82.407-118.192 77-196-3.532-36.931-14.866-71.264-34-103-1.5-10.5 3-15 13.5-13.5a12.403 12.403 0 0 1 4 2.5c21.267 34.468 33.934 71.801 38 112v46c-12.421 96.721-62.087 166.887-149 210.5-26.948 11.902-54.948 19.402-84 22.5h-46c-96.721-12.421-166.887-62.087-210.5-149-11.902-26.949-19.402-54.949-22.5-84v-46C11.928 134.769 62.261 64.269 150.5 21c26.392-11.263 53.725-18.43 82-21.5Zm22 126c30.679 1.584 52.512 16.25 65.5 44 11.989 40.844-.844 71.011-38.5 90.5-32.132 10.674-59.299 3.174-81.5-22.5-13.312-18.898-16.978-39.565-11-62 11.168-30.815 33.001-47.482 65.5-50Zm0 200c53.572 2.144 94.405 25.811 122.5 71 8.822 15.622 14.156 32.288 16 50-61.963 42.857-129.463 54.691-202.5 35.5-25.931-7.967-49.931-19.634-72-35 7.936-54.965 37.936-92.632 90-113 15.098-4.903 30.431-7.736 46-8.5Z"/><path style="opacity:.908" d="M434.5 81.5c11.824-1.676 16.658 3.324 14.5 15-3.655 4.775-8.488 6.275-14.5 4.5-4.775-3.655-6.275-8.488-4.5-14.5a32.864 32.864 0 0 1 4.5-5Z"/><path style="opacity:.943" d="M241.5 105.5c38.24-3.554 68.407 10.112 90.5 41 14.911 26.072 17.578 53.406 8 82-13.374 31.366-36.874 50.199-70.5 56.5-38.258 4.045-68.424-9.455-90.5-40.5-14.911-26.072-17.578-53.406-8-82 13.541-31.379 37.041-50.379 70.5-57Zm13 20c-32.499 2.518-54.332 19.185-65.5 50-5.978 22.435-2.312 43.102 11 62 22.201 25.674 49.368 33.174 81.5 22.5 37.656-19.489 50.489-49.656 38.5-90.5-12.988-27.75-34.821-42.416-65.5-44Z"/>
</symbol>

<symbol xmlns="http://www.w3.org/2000/svg" viewBox="0 0 512 512" id="money" fill="currentColor" style="enable-background:new 0 0 512 512" xml:space="preserve"><path d="M256 317c-8.271 0-15-6.729-15-15a14.988 14.988 0 0 1 9.159-13.825c6.717-2.844 14.755-.417 22.059 6.659 5.95 5.764 15.446 5.614 21.21-.335 5.765-5.95 5.614-15.446-.335-21.21-6.772-6.561-14.3-11.198-22.093-13.815V242c0-8.284-6.716-15-15-15s-15 6.716-15 15v17.571a46.57 46.57 0 0 0-2.54.979A44.936 44.936 0 0 0 211 302c0 24.813 20.187 45 45 45 8.271 0 15 6.729 15 15 0 6.286-3.965 11.954-9.866 14.103-7.705 2.805-16.674-1-24.606-10.445-5.328-6.344-14.789-7.167-21.133-1.839s-7.167 14.79-1.839 21.133c8.109 9.655 17.548 16.276 27.445 19.608V422c0 8.284 6.716 15 15 15s15-6.716 15-15v-17.573c.134-.047.268-.088.401-.136C289.105 397.843 301 380.847 301 362c0-24.813-20.187-45-45-45z"/><path d="M394.919 225.259c-17.828-21.933-38.208-39.407-60.58-51.973a45.27 45.27 0 0 0 8.422-15.083c7.326-22.309-3.375-48.809-30.688-57.442l38.289-66.765c4.831-8.426.491-19.158-8.824-21.866C313.854 4.081 285.076 0 256 0s-57.854 4.081-85.538 12.13c-9.326 2.711-13.649 13.45-8.824 21.866l38.289 66.766c-27.205 8.589-38.041 35.05-30.684 57.453a45.075 45.075 0 0 0 8.426 15.067c-22.375 12.566-42.757 30.042-60.587 51.977C81.441 269.106 61 324.413 61 377c0 109.091 87.047 135 195 135 108.029 0 195-25.953 195-135 0-52.587-20.441-107.894-56.081-151.741zM197.496 36.218A277.21 277.21 0 0 1 256 30a277.21 277.21 0 0 1 58.504 6.218L281.471 93.82a183.992 183.992 0 0 0-50.941.001l-33.034-57.603zm9.8 93.678c25.815-8.468 52.823-10.073 79.08-4.824l.094.018a158.346 158.346 0 0 1 18.213 4.799c7.861 2.591 12.157 11.094 9.58 18.941a14.955 14.955 0 0 1-12.635 10.231C286.672 154.378 271.417 152 256 152c-15.386 0-30.611 2.368-45.538 7.032-5.907-.608-10.864-4.55-12.721-10.188-2.581-7.861 1.715-16.365 9.555-18.948zM256 482.2c-117.196 0-165-30.62-165-105.2 0-45.142 18.453-94.793 49.36-132.818C172.955 204.083 214.023 182 256 182c46.206 0 86.621 26.482 115.64 62.182C402.547 282.207 421 331.858 421 377c0 74.58-47.804 105.2-165 105.2z"/>
</symbol>

<symbol viewBox="0 0 320.941 320.941" id="close" fill="currentColor"  xmlns="http://www.w3.org/2000/svg"><path d="M290.853 40.118H109.804a30 30 0 0 0-23.301 11.038L2.262 154.124a10.032 10.032 0 0 0 0 12.693l84.251 102.978c5.739 7.013 14.231 11.028 23.291 11.028h181.048c16.592 0 30.088-13.497 30.088-30.088V70.206c.001-16.592-13.496-30.088-30.087-30.088zm10.029 210.617c0 5.534-4.496 10.029-10.029 10.029H109.804a10.006 10.006 0 0 1-7.767-3.673l-79.05-96.621 79.04-96.611a10.017 10.017 0 0 1 7.777-3.683h181.048c5.534 0 10.029 4.496 10.029 10.029l.001 180.53z"/><path d="m223.585 103.232-43.056 43.056-43.056-43.056-14.182 14.182 43.056 43.056-43.056 43.056 14.182 14.182 43.056-43.056 43.056 43.056 14.182-14.182-43.056-43.056 43.056-43.056z"/>
</symbol>

<symbol xmlns="http://www.w3.org/2000/svg" viewBox="0 0 488.85 488.85" id="eye" fill="currentColor"><path d="M244.425 98.725c-93.4 0-178.1 51.1-240.6 134.1-5.1 6.8-5.1 16.3 0 23.1 62.5 83.1 147.2 134.2 240.6 134.2s178.1-51.1 240.6-134.1c5.1-6.8 5.1-16.3 0-23.1-62.5-83.1-147.2-134.2-240.6-134.2zm6.7 248.3c-62 3.9-113.2-47.2-109.3-109.3 3.2-51.2 44.7-92.7 95.9-95.9 62-3.9 113.2 47.2 109.3 109.3-3.3 51.1-44.8 92.6-95.9 95.9zm-3.1-47.4c-33.4 2.1-61-25.4-58.8-58.8 1.7-27.6 24.1-49.9 51.7-51.7 33.4-2.1 61 25.4 58.8 58.8-1.8 27.7-24.2 50-51.7 51.7z"/>
</symbol>

<symbol xmlns="http://www.w3.org/2000/svg" id="subscipber1" fill="currentColor" viewBox="0 0 512 512" style="shape-rendering:geometricPrecision;text-rendering:geometricPrecision;image-rendering:optimizeQuality;fill-rule:evenodd;clip-rule:evenodd"><path style="opacity:.953" d="M96.5 30.5c31.08-3.037 51.913 9.963 62.5 39 6.175 33.463-6.659 55.963-38.5 67.5-28.35-1.395-52.183 8.105-71.5 28.5-8.561 10.509-13.728 22.509-15.5 36 25.336-.167 50.669 0 76 .5 9.836 6.036 10.503 13.036 2 21-32 .667-64 .667-96 0-5.618-4.929-7.451-11.095-5.5-18.5 4.842-37.718 24.342-64.718 58.5-81-16.974-19.047-20.474-40.38-10.5-64 8.663-15.394 21.496-25.06 38.5-29Zm4 23c18.6-.957 30.767 7.377 36.5 25 1.184 24.816-10.649 37.316-35.5 37.5-20.49-5.491-28.99-18.658-25.5-39.5 3.887-12.392 12.054-20.058 24.5-23Z"/><path style="opacity:.959" d="M187.5 116.5c6.628-1.269 11.461 1.064 14.5 7 .5 11.995.667 23.995.5 36 12.338-.167 24.671 0 37 .5 8.503 7.964 7.836 14.964-2 21-11.662.5-23.329.667-35 .5.167 11.671 0 23.338-.5 35-1.572 5.204-5.072 7.537-10.5 7-5.428.537-8.928-1.796-10.5-7a612.388 612.388 0 0 1-.5-35c-11.671.167-23.338 0-35-.5-9.836-6.036-10.503-13.036-2-21 12.329-.5 24.662-.667 37-.5-.167-12.005 0-24.005.5-36 1.694-2.858 3.861-5.191 6.5-7Z"/>
</symbol>

<symbol xmlns="http://www.w3.org/2000/svg" id="livre" fill="currentColor" viewBox="0 0 412.72 412.72" style="enable-background:new 0 0 412.72 412.72" xml:space="preserve"><path d="M404.72 82.944h-27.2v-9.28a8 8 0 0 0-5.76-8 225.345 225.345 0 0 0-57.68-7.36c-32 0-75.6 7.2-107.84 40-32-33.12-75.92-40-107.84-40a225.345 225.345 0 0 0-57.68 7.36 8 8 0 0 0-5.76 8v9.2H8a8 8 0 0 0-8 8v255.52a8 8 0 0 0 8 8 7.996 7.996 0 0 0 3.92-1.04c.8-.4 80.8-44.16 192.48-16h1.92a8.008 8.008 0 0 0 1.92 0c112-28.4 192 15.28 192.48 16a8 8 0 0 0 12-6.88V90.944a8 8 0 0 0-8-8zM16 333.664V98.944h19.12v200.64a8 8 0 0 0 9.2 8 350.096 350.096 0 0 1 50-4 207.516 207.516 0 0 1 68.32 10.32A294.1 294.1 0 0 0 16 333.664zm78.32-46a351.994 351.994 0 0 0-43.52 2.8V79.984a220.645 220.645 0 0 1 47.44-5.28c29.92 0 71.2 6.88 99.84 39.2l.24 199.28c-16.64-10.88-49.12-25.52-104-25.52zm120-173.76c28.64-32 69.92-39.2 99.84-39.2a221.61 221.61 0 0 1 47.44 5.28v210.48a351.895 351.895 0 0 0-43.28-2.88c-54.56 0-87.12 14.64-104 25.52v-199.2zm182.32 219.76a294.158 294.158 0 0 0-146.96-19.76 208.008 208.008 0 0 1 68.64-10.32 349.994 349.994 0 0 1 50.32 3.92 8 8 0 0 0 9.2-8V98.944h19.12l-.32 234.72z"/>
</symbol>

<symbol xmlns="http://www.w3.org/2000/svg" id="reaction" fill="currentColor" viewBox="0 0 512 512" style="enable-background:new 0 0 512 512" xml:space="preserve"><path d="M34.103 261.27c-.13-.64-.32-1.27-.57-1.87-.25-.6-.56-1.18-.92-1.72a9.57 9.57 0 0 0-1.24-1.52c-.46-.47-.98-.88-1.52-1.25a10.098 10.098 0 0 0-3.6-1.49 9.898 9.898 0 0 0-3.91 0 10.098 10.098 0 0 0-3.6 1.49c-.54.37-1.05.78-1.52 1.25a10.153 10.153 0 0 0-2.16 3.24c-.25.61-.44 1.23-.57 1.87-.13.65-.19 1.31-.19 1.96s.059 1.31.19 1.95a10.098 10.098 0 0 0 1.49 3.6c.37.55.78 1.06 1.24 1.52.47.46.98.88 1.52 1.24a10.098 10.098 0 0 0 5.56 1.69 10.098 10.098 0 0 0 5.55-1.69c.54-.36 1.06-.78 1.52-1.24s.88-.97 1.24-1.52a10.098 10.098 0 0 0 1.69-5.55c0-.65-.07-1.31-.2-1.96zM355.954 119.595c-.13-.63-.32-1.26-.57-1.87-.25-.6-.56-1.18-.92-1.72a9.63 9.63 0 0 0-1.25-1.52 9.57 9.57 0 0 0-1.52-1.24c-.54-.36-1.12-.67-1.72-.92-.6-.25-1.23-.45-1.87-.57a9.898 9.898 0 0 0-3.91 0c-.64.12-1.27.32-1.87.57-.61.25-1.19.56-1.73.92-.55.36-1.06.78-1.52 1.24s-.88.97-1.24 1.52c-.36.54-.67 1.12-.92 1.72-.25.61-.44 1.24-.57 1.87-.13.65-.2 1.31-.2 1.961a10.098 10.098 0 0 0 .77 3.82c.25.61.56 1.19.92 1.73.36.55.78 1.06 1.24 1.52s.97.88 1.52 1.24c.54.36 1.12.67 1.73.92.6.25 1.23.44 1.87.57s1.3.2 1.95.2a10.098 10.098 0 0 0 3.83-.77c.6-.25 1.18-.56 1.72-.92a9.57 9.57 0 0 0 1.52-1.24 9.87 9.87 0 0 0 2.17-3.25 9.84 9.84 0 0 0 .76-3.82c0-.65-.06-1.31-.19-1.961zM256 153.973c-56.258 0-102.027 45.77-102.027 102.027 0 56.258 45.77 102.027 102.027 102.027S358.027 312.258 358.027 256 312.258 153.973 256 153.973zm0 184.053c-45.23 0-82.026-36.796-82.026-82.026S210.77 173.974 256 173.974 338.026 210.77 338.026 256 301.23 338.026 256 338.026z"/><path d="M256 194.275c-34.036 0-61.726 27.69-61.726 61.725 0 34.036 27.69 61.726 61.726 61.726s61.726-27.69 61.726-61.726c-.001-34.035-27.69-61.725-61.726-61.725zm0 103.45c-23.007 0-41.725-18.718-41.725-41.726 0-23.007 18.718-41.724 41.725-41.724s41.725 18.718 41.725 41.724c0 23.008-18.718 41.726-41.725 41.726z"/><path d="M382.18 139.34c-3.75-4.054-10.077-4.3-14.131-.549s-4.3 10.078-.549 14.131c26.066 28.173 40.421 64.78 40.421 103.078 0 68.035-46.042 128.032-110.808 146.269-5.46-17.513-21.825-30.262-41.112-30.262-19.287 0-35.652 12.749-41.112 30.262C150.116 384.033 104.08 324.051 104.08 256c0-67.94 46.076-128.029 110.808-146.268 5.46 17.513 21.825 30.261 41.112 30.261 23.739 0 43.052-19.313 43.052-43.052S279.739 53.89 256 53.89c-21.156 0-38.795 15.339-42.384 35.478-35.408 9.029-67.46 29.463-90.782 58.003-24.991 30.583-38.754 69.161-38.754 108.628 0 39.616 13.856 78.309 39.017 108.949 23.31 28.386 55.243 48.685 90.518 57.682 3.588 20.141 21.229 35.479 42.384 35.479 21.156 0 38.796-15.339 42.385-35.479 35.294-9.001 67.245-29.32 90.557-57.727C414.077 334.271 427.92 295.595 427.92 256c0-43.348-16.244-84.779-45.74-116.66zM256 73.891c12.71 0 23.051 10.34 23.051 23.051S268.71 119.993 256 119.993c-12.71 0-23.051-10.34-23.051-23.051 0-12.71 10.341-23.051 23.051-23.051zm0 364.219c-12.71 0-23.051-10.34-23.051-23.051 0-12.71 10.34-23.051 23.051-23.051 12.71 0 23.051 10.34 23.051 23.051 0 12.71-10.34 23.051-23.051 23.051z"/><path d="M491.518 310.934A242.083 242.083 0 0 0 497.814 256c0-133.337-108.478-241.815-241.815-241.815-81.368 0-156.708 40.593-201.757 108.642-20.323-5.486-42.185 4.673-50.74 24.563-9.38 21.807.73 47.18 22.537 56.559a42.803 42.803 0 0 0 16.952 3.503c16.689 0 32.605-9.761 39.608-26.04 7.466-17.358 2.583-36.974-10.717-48.987C113.325 70.858 181.945 34.185 256 34.185c122.308 0 221.814 99.505 221.814 221.814 0 16.44-1.809 32.775-5.382 48.685-17.901-1.438-35.55 8.513-43.031 25.903-7.467 17.359-2.583 36.977 10.72 48.99-41.431 61.68-109.62 98.235-184.122 98.235-105.781 0-197.326-75.294-217.675-179.031a9.998 9.998 0 0 0-11.738-7.888c-5.419 1.063-8.951 6.318-7.888 11.738 22.185 113.097 121.983 195.183 237.3 195.183 41.938 0 83.284-10.955 119.571-31.681 32.952-18.822 61.231-45.33 82.185-76.96a42.683 42.683 0 0 0 11.133 1.476c16.69 0 32.605-9.762 39.607-26.04 8.545-19.858.923-42.672-16.976-53.675zM64.226 173.51c-5.024 11.676-18.61 17.087-30.284 12.066-11.675-5.022-17.089-18.608-12.066-30.284 3.749-8.716 12.27-13.942 21.207-13.942 3.034 0 6.117.603 9.076 1.876 11.676 5.023 17.089 18.608 12.067 30.284zm425.898 183.197c-5.023 11.675-18.607 17.089-30.283 12.066h.001c-11.676-5.022-17.09-18.608-12.067-30.284 5.023-11.675 18.609-17.09 30.283-12.066 11.674 5.023 17.088 18.608 12.066 30.284z"/>
</symbol>

</svg>